<?xml version="1.0" encoding="utf-8"?>
<!-- Generator: Adobe Illustrator 27.5.0, SVG Export Plug-In . SVG Version: 6.00 Build 0)  -->
<svg version="1.1" xmlns="http://www.w3.org/2000/svg" xmlns:xlink="http://www.w3.org/1999/xlink" x="0px" y="0px"
	 viewBox="0 0 500 500" style="enable-background:new 0 0 500 500;" xml:space="preserve">
<g id="BACKGROUND">
	<rect y="0.001" style="fill:#FFFFFF;" width="500" height="500"/>
</g>
<g id="OBJECTS">
	
		<line style="fill:none;stroke:#423B37;stroke-width:0.8391;stroke-miterlimit:10;" x1="98.127" y1="430.043" x2="116.45" y2="430.043"/>
	<g>
		<path style="fill:#D8F0DB;" d="M430.026,436.11h-370c0,0-11.629-59.191,34.333-116.285
			c45.962-57.094,42.416-175.81,131.27-193.744c80.232-16.194,122.887,14.439,133.363,56.797
			C376.351,253.068,484.026,359.396,430.026,436.11z"/>
		<g>
			<g>
				<path style="fill:#638079;" d="M58.86,435.61h56.53c0,0,3.915-8.671-0.839-23.494c-6.433-2.237-30.766-4.475-30.766-4.475
					s-4.196,6.895-7.832,10.53C68.681,418.17,60.235,425.128,58.86,435.61z"/>
				<path style="fill:#455955;" d="M88.041,421.1l-0.781-0.625c4.308-5.393,6.095-10.101,6.113-10.147l0.937,0.35
					C94.236,410.875,92.455,415.574,88.041,421.1z"/>
				<path style="fill:#455955;" d="M75.953,418.17c0,0,0.492-0.043,1.357-0.032c0.862,0.025,2.103,0.063,3.575,0.285
					c1.467,0.231,3.183,0.561,4.958,1.162c0.88,0.315,1.796,0.642,2.679,1.084c0.892,0.423,1.768,0.919,2.611,1.47
					c0.83,0.569,1.636,1.181,2.356,1.867c0.74,0.664,1.368,1.422,1.952,2.164c0.272,0.387,0.539,0.769,0.784,1.151
					c0.219,0.397,0.434,0.787,0.642,1.166c0.177,0.394,0.35,0.775,0.517,1.146c0.151,0.376,0.271,0.749,0.4,1.101
					c0.245,0.708,0.392,1.382,0.51,1.974c0.087,0.601,0.197,1.115,0.227,1.548c0.057,0.862,0.089,1.354,0.089,1.354
					s-0.102-0.482-0.281-1.323c-0.078-0.421-0.245-0.917-0.396-1.489c-0.186-0.564-0.403-1.197-0.677-1.867
					c-0.148-0.332-0.288-0.682-0.458-1.032c-0.184-0.344-0.375-0.698-0.571-1.063c-0.224-0.347-0.454-0.702-0.688-1.066
					c-0.259-0.346-0.523-0.698-0.792-1.058c-0.575-0.689-1.208-1.366-1.91-1.994c-0.688-0.643-1.462-1.212-2.257-1.746
					c-1.587-1.081-3.346-1.896-5.033-2.559c-1.697-0.64-3.334-1.124-4.764-1.439c-1.429-0.307-2.635-0.537-3.487-0.642
					C76.445,418.215,75.953,418.17,75.953,418.17z"/>
				<path style="fill:#FFFFFF;" d="M95.822,420.418c-0.128,0-0.256-0.049-0.353-0.146c-4.36-4.36-12.511-4.094-12.587-4.082
					c-0.273-0.001-0.509-0.204-0.52-0.479c-0.011-0.276,0.203-0.509,0.479-0.521c0.35-0.01,8.663-0.298,13.335,4.375
					c0.195,0.195,0.195,0.512,0,0.707C96.078,420.37,95.95,420.418,95.822,420.418z"/>
			</g>
			<g>
				<path style="fill:#D67D56;" d="M210.681,279.958c0,0-2.043,26.012,0,46.569c2.044,20.558,4.646,66.708,4.646,80.553
					c-6.336,6.335-21.901,2.518-21.901,2.518s-12.167-73.84-16.782-131.737C192.167,274.923,210.681,279.958,210.681,279.958z"/>
				<path style="fill:#86C7B9;" d="M192.027,435.61h39.717c0,0-1.678-5.875-8.111-8.951c-6.433-3.076-6.511-11.882-8.306-19.578
					c-8.756-3.636-21.901,2.518-21.901,2.518L192.027,435.61z"/>
			</g>
			<g>
				<path style="fill:#423B37;" d="M99.028,195.21c0,0,2.605-60.165,52.303-38.458c8.811,0,18.18,15.384,18.18,34.263
					c0,18.88,23.075,10.488,12.586,34.822c-26.012,16.362-99.012,57.478-99.012,57.478s0.429-8.724-10.059-14.598
					c-10.489-5.873-14.512-22.742-0.666-36.587C86.205,218.286,96.511,222.061,99.028,195.21z"/>
				<path style="fill:#70645D;" d="M115.195,195.909c0,0,2.165-0.937,5.268-2.589c1.56-0.808,3.326-1.85,5.181-3.012
					c0.93-0.577,1.861-1.218,2.805-1.868c0.935-0.664,1.876-1.352,2.773-2.091c0.916-0.717,1.789-1.485,2.626-2.263
					c0.409-0.398,0.815-0.794,1.216-1.184c0.382-0.409,0.759-0.813,1.13-1.21c0.711-0.821,1.384-1.628,1.971-2.435
					c0.588-0.805,1.087-1.605,1.523-2.36c0.412-0.767,0.783-1.476,1.064-2.129c0.31-0.642,0.48-1.24,0.673-1.717
					c0.296-0.983,0.466-1.546,0.466-1.546s-0.082,0.581-0.279,1.599c-0.146,0.494-0.263,1.119-0.513,1.798
					c-0.121,0.342-0.251,0.705-0.386,1.088c-0.167,0.371-0.343,0.762-0.526,1.168c-0.789,1.601-1.887,3.395-3.325,5.109
					c-0.724,0.852-1.499,1.71-2.348,2.518c-0.851,0.806-1.736,1.602-2.666,2.343c-1.86,1.48-3.826,2.818-5.748,3.931
					c-1.915,1.125-3.78,2.029-5.391,2.765c-1.611,0.736-3.003,1.235-3.971,1.588C115.764,195.753,115.195,195.909,115.195,195.909z"
					/>
				<path style="fill:#70645D;" d="M148.954,176.045c0,0,0.041-0.88,0.138-2.169c0.044-0.644,0.094-1.394,0.148-2.197
					c0.052-0.801,0.101-1.652,0.124-2.504c0.042-0.851,0.032-1.697,0.029-2.494c-0.015-0.396-0.03-0.781-0.044-1.145
					c-0.036-0.36-0.057-0.706-0.076-1.026c-0.04-0.318-0.077-0.609-0.109-0.867c-0.022-0.264-0.082-0.481-0.111-0.669
					c-0.063-0.379-0.099-0.595-0.099-0.595s0.105,0.192,0.288,0.53c0.081,0.174,0.212,0.379,0.292,0.634
					c0.094,0.252,0.2,0.538,0.303,0.855c0.18,0.639,0.342,1.4,0.436,2.226c0.089,0.823,0.113,1.707,0.09,2.587
					c-0.045,0.878-0.112,1.754-0.25,2.564c-0.121,0.813-0.29,1.562-0.457,2.195C149.321,175.241,148.954,176.045,148.954,176.045z"
					/>
			</g>
			<g>
				<path style="fill:#F2C944;" d="M82.934,271.818l40.652,62.682c0,0,28.774,35.69,71.518,23.494
					c4.07-1.161-10.272-14.265-10.272-38.179c0-23.914,0-25.172,0-36.5c8.595,0,14.576,1.679,25.85-3.357
					c0-13.006-1.313-49.506-21.031-55.8c-19.718-6.293-26.012-12.586-35.242-12.586c-12.166,2.518-38.952,7.46-38.952,7.46
					s-12.862,4.776-20.763,12.678C86.792,239.613,83.86,254.299,82.934,271.818z"/>
				<path style="fill:#FFF2C7;" d="M124.988,234.655c0,0,9.332,34.724,29.321,30.333c17.771-3.903,12.699-41.892,6.469-52.412
					C156.481,216.874,124.988,234.655,124.988,234.655z"/>
				<path style="fill:#CC9639;" d="M114.551,279.958c0,0,3.152-14.684,5.981-22.655c0,16.362,2.661,25.081,9.248,41.489
					c6.587,16.408,27.983,44.518,46.863,30.672c-4.195,9.23-23.075,19.719-49.087-27.689c-10.908-6.294-23.914-15.808-23.914-15.808
					L114.551,279.958z"/>
				<path style="fill:#CC9639;" d="M184.832,283.815c-0.004,0-0.009,0-0.013,0c-0.276-0.007-0.494-0.236-0.487-0.513
					c0.006-0.244,0.653-24.506,3.154-34.926c0.065-0.269,0.337-0.435,0.603-0.37c0.269,0.064,0.434,0.335,0.37,0.604
					c-2.476,10.317-3.121,34.475-3.126,34.718C185.324,283.599,185.102,283.815,184.832,283.815z"/>
			</g>
			<g>
				<path style="fill:#423B37;" d="M195.104,357.994c0,0,29.089,44.611,17.901,62.512c-11.188,17.902-20.977,15.104-41.154,15.104
					c-17.582-6.154-37.72-16.224-57.299-28.529c0,5.035,0,5.035,0,5.035s-19.299,5.314-35.241-4.196
					c1.258-18.669,0.368-24.105,0-35.8c-6.014-6.015-20.558-17.482-12.166-40.138c8.391-22.655,13.845-51.608,46.569-48.667
					c29.508,2.652,16.068,37.759,15.628,52.862C155.36,368.045,195.104,357.994,195.104,357.994z"/>
				<path style="fill:#574E49;" d="M78.811,371.666c-0.019-0.252-1.859-25.504,0-49.372l0.997,0.078
					c-1.854,23.793-0.019,48.968,0,49.22L78.811,371.666z"/>
				<path style="fill:#332E2B;" d="M171.85,414.913c0,0-19.537-9.893-50.96-36.78c-1.411,7.659-1.411,7.659-1.411,7.659
					S152.792,410.158,171.85,414.913z"/>
				<path style="fill:#332E2B;" d="M129.34,336.177c0,0-8.077,34.822-14.79,70.903c5.688-13.001,12.164-42.442,20.949-64.333
					C133.383,340.784,131.321,338.604,129.34,336.177z"/>
				<path style="fill:#574E49;" d="M171.598,415.344c-0.268-0.156-27.09-15.91-51.041-36.811l0.657-0.754
					c23.88,20.84,50.621,36.545,50.888,36.701L171.598,415.344z"/>
			</g>
			<g>
				<path style="fill:#D67D56;" d="M129.34,236.221c0,0,7.088,29.513,24.333,25.173c15.418-3.882,8.414-41.019,5.687-46.683
					C155.794,218.278,129.34,236.221,129.34,236.221z"/>
				<path style="fill:#D67D56;" d="M148.954,176.045c0,0-2.293,19.863-33.759,19.863c-3.497,3.497-5.73,4.686-5.73,4.686
					s-0.562-3.469-4.059-6.966c-2.716-2.717-6.367-0.585-7.272,5.218c-0.829,5.315,1.852,13.907,10.349,12.447
					c2.517,7.831,9.145,26.291,26.207,26.291c13.984,0,27.047-21.706,27.047-28.38c4.195,0,8.911-2.437,8.911-12.506
					c0-10.069-8.352-6.094-10.589-0.221C158.36,186.712,152.03,186.115,148.954,176.045z"/>
				<path style="fill:#94563B;" d="M134.272,202.903c0,0-0.413,1.374-1.032,3.435c-0.3,1.029-0.644,2.229-0.972,3.52
					c-0.32,1.291-0.645,2.672-0.833,4.059c-0.196,1.37-0.281,2.803,0.076,3.948c0.188,0.56,0.485,1.041,0.949,1.273
					c0.235,0.098,0.467,0.222,0.732,0.235c0.13,0.02,0.258,0.038,0.383,0.058c0.131-0.006,0.26-0.011,0.386-0.016
					c0.253,0.005,0.497-0.034,0.731-0.08c0.233-0.043,0.462-0.059,0.667-0.127c0.411-0.122,0.786-0.195,1.074-0.317
					c0.587-0.213,0.934-0.324,0.934-0.324s-0.304,0.189-0.856,0.503c-0.27,0.169-0.633,0.302-1.037,0.493
					c-0.199,0.103-0.434,0.158-0.673,0.241c-0.239,0.086-0.499,0.151-0.785,0.183c-0.551,0.124-1.224,0.083-1.888-0.18
					c-0.686-0.275-1.193-0.949-1.445-1.64c-0.527-1.413-0.415-2.941-0.238-4.388c0.432-2.908,1.419-5.642,2.256-7.633
					C133.555,204.156,134.272,202.903,134.272,202.903z"/>
				<path style="fill:#94563B;" d="M133.361,226.453c0,0,0.725-0.166,1.72-0.541c0.5-0.18,1.058-0.438,1.637-0.729
					c0.562-0.323,1.168-0.653,1.687-1.1c0.287-0.19,0.522-0.439,0.776-0.662c0.25-0.226,0.462-0.482,0.689-0.713
					c0.218-0.238,0.394-0.5,0.588-0.729c0.198-0.229,0.33-0.481,0.486-0.698c0.138-0.225,0.303-0.417,0.396-0.613
					c0.109-0.191,0.205-0.358,0.283-0.495c0.171-0.275,0.268-0.433,0.268-0.433s-0.023,0.182-0.081,0.5
					c-0.033,0.16-0.072,0.354-0.117,0.576c-0.037,0.228-0.141,0.461-0.237,0.725c-0.106,0.26-0.189,0.561-0.365,0.834
					c-0.165,0.278-0.309,0.597-0.529,0.877c-0.227,0.273-0.42,0.598-0.698,0.853c-0.274,0.258-0.531,0.545-0.844,0.767
					c-0.302,0.236-0.619,0.45-0.948,0.632c-0.314,0.208-0.668,0.327-0.988,0.479c-0.665,0.252-1.306,0.424-1.866,0.484
					C134.1,226.626,133.361,226.453,133.361,226.453z"/>
				<path style="fill:#423B37;" d="M139.584,193.812c0,0,0.292-0.927,1.246-2.007c0.254-0.25,0.505-0.561,0.846-0.808
					c0.32-0.271,0.694-0.521,1.112-0.742c0.198-0.129,0.428-0.212,0.66-0.301c0.235-0.081,0.46-0.199,0.717-0.238
					c0.506-0.111,1.028-0.202,1.569-0.159c0.541-0.018,1.057,0.155,1.563,0.29c0.488,0.173,0.924,0.445,1.342,0.681
					c0.368,0.301,0.709,0.604,1.02,0.894c0.277,0.318,0.495,0.651,0.703,0.944c0.101,0.148,0.204,0.284,0.288,0.423
					c0.067,0.148,0.131,0.29,0.191,0.423c0.123,0.261,0.21,0.498,0.285,0.689c0.145,0.386,0.207,0.61,0.207,0.61
					s-0.206-0.135-0.529-0.377c-0.16-0.123-0.356-0.268-0.56-0.444c-0.199-0.182-0.444-0.36-0.717-0.536
					c-0.26-0.18-0.541-0.374-0.838-0.58c-0.315-0.16-0.633-0.329-0.948-0.517c-0.344-0.108-0.677-0.261-1.022-0.358
					c-0.357-0.041-0.698-0.18-1.063-0.144c-0.358-0.047-0.72,0.02-1.084,0.055c-0.359,0.074-0.726,0.144-1.076,0.267
					c-0.353,0.115-0.698,0.238-1.022,0.393c-0.335,0.126-0.632,0.303-0.932,0.433c-0.273,0.167-0.556,0.29-0.787,0.431
					c-0.238,0.138-0.446,0.257-0.617,0.355C139.785,193.694,139.584,193.812,139.584,193.812z"/>
				<path style="fill:#94563B;" d="M161.594,199.152c0,0,5.415-6.573,5.415-2.378c0,4.195-2.019,7.972-5.415,7.972
					C162.813,202.368,161.594,199.152,161.594,199.152z"/>
				<path style="fill:#94563B;" d="M107.143,201.503c0,0-3.518-5.568-4.846-4.239c-1.329,1.328-1.098,9.984,4.846,9.274
					C106.374,205.07,106.164,202.483,107.143,201.503z"/>
				<path style="fill:#423B37;" d="M147.416,201.819c0,1.294-0.876,2.343-1.957,2.343c-1.082,0-1.958-1.049-1.958-2.343
					c0-1.294,0.876-2.343,1.958-2.343C146.54,199.476,147.416,200.525,147.416,201.819z"/>
				<path style="fill:#423B37;" d="M125.544,201.819c0,1.294-0.877,2.343-1.958,2.343c-1.082,0-1.958-1.049-1.958-2.343
					c0-1.294,0.876-2.343,1.958-2.343C124.667,199.476,125.544,200.525,125.544,201.819z"/>
				<path style="fill:#94563B;" d="M159.793,215.778c0,0-0.231,0.573-0.708,1.544c-0.486,0.964-1.184,2.348-2.164,3.925
					c-0.98,1.576-2.168,3.398-3.628,5.214c-0.723,0.913-1.507,1.83-2.348,2.723c-0.842,0.891-1.734,1.764-2.674,2.587
					c-0.948,0.813-1.928,1.594-2.955,2.277c-1.01,0.71-2.084,1.287-3.133,1.819c-0.54,0.235-1.063,0.485-1.594,0.684
					c-0.54,0.175-1.056,0.38-1.58,0.515c-1.04,0.291-2.045,0.473-2.978,0.583c-0.468,0.034-0.916,0.066-1.343,0.097
					c-0.427-0.016-0.832-0.029-1.212-0.043c-0.759-0.027-1.411-0.167-1.948-0.223c-1.06-0.243-1.653-0.402-1.653-0.402
					s0.61,0.076,1.679,0.209c0.538,0.006,1.186,0.085,1.929,0.044c0.37-0.021,0.764-0.043,1.179-0.065
					c0.411-0.056,0.844-0.113,1.294-0.174c0.896-0.157,1.854-0.387,2.837-0.722c0.495-0.156,0.981-0.384,1.489-0.578
					c0.493-0.232,0.997-0.47,1.509-0.712c0.999-0.536,2.003-1.141,2.979-1.826c0.986-0.67,1.929-1.439,2.845-2.235
					c0.921-0.793,1.801-1.636,2.633-2.5c0.825-0.87,1.636-1.732,2.367-2.614c1.483-1.746,2.792-3.448,3.837-4.963
					c1.047-1.514,1.908-2.79,2.463-3.713C159.483,216.312,159.793,215.778,159.793,215.778z"/>
			</g>
			<g>
				<path style="fill:#D67D56;" d="M82.934,271.818c0,0,13.577,0.17,31.617,8.141c-2.097,12.587-7.262,43.493-7.262,67.268
					c-4.899,4.899-21.068,10.348-21.068,10.348S79.997,304.123,82.934,271.818z"/>
				<g>
					<path style="fill:#86C7B9;" d="M108.498,346.016c-1.638-1.638-22.498,1.21-24.638,11.558c0,6.713,3.42,4.233,3.42,8.43
						c-1.818,9.51,0.718,40.798,20.008,38.84c6.144-2.517,9.618-13.221,9.618-13.221s5.399-9.449,3.626-16.103
						c-3.626-13.604-10.861-19.759-13.244-22.141C109.403,349.907,110.136,347.654,108.498,346.016z"/>
					<path style="fill:#5E8C82;" d="M97.86,379.951c0,0,0.238,1.602,0.595,4.008c0.165,1.2,0.418,2.592,0.669,4.081
						c0.272,1.485,0.542,3.073,0.902,4.639c0.316,1.576,0.725,3.128,1.135,4.572c0.19,0.73,0.444,1.406,0.643,2.067
						c0.194,0.663,0.478,1.247,0.688,1.811c0.206,0.568,0.488,1.038,0.683,1.49c0.106,0.221,0.206,0.429,0.298,0.62
						c0.113,0.179,0.216,0.343,0.31,0.491c0.368,0.607,0.578,0.955,0.578,0.955s-0.272-0.297-0.737-0.843
						c-0.116-0.137-0.244-0.289-0.383-0.455c-0.12-0.179-0.249-0.373-0.387-0.58c-0.261-0.423-0.622-0.874-0.869-1.436
						c-0.261-0.554-0.605-1.135-0.86-1.79c-0.258-0.653-0.588-1.328-0.802-2.065c-0.233-0.73-0.508-1.477-0.693-2.261
						c-0.211-0.776-0.413-1.568-0.58-2.367c-0.177-0.797-0.317-1.601-0.454-2.391c-0.153-0.788-0.229-1.575-0.34-2.33
						c-0.192-1.515-0.28-2.938-0.358-4.153c-0.077-1.217-0.063-2.236-0.068-2.946C97.833,380.357,97.86,379.951,97.86,379.951z"/>
					<path style="fill:#5E8C82;" d="M91.86,381.253c0,0,0.236,1.243,0.59,3.108c0.337,1.854,0.786,4.327,1.234,6.801
						c0.123,0.614,0.245,1.23,0.366,1.834c0.134,0.603,0.202,1.211,0.353,1.777c0.126,0.574,0.249,1.129,0.365,1.655
						c0.123,0.525,0.197,1.034,0.319,1.487c0.247,0.906,0.412,1.681,0.547,2.217c0.127,0.54,0.186,0.855,0.186,0.855
						s-0.142-0.282-0.369-0.789c-0.217-0.509-0.557-1.229-0.915-2.117c-0.185-0.441-0.323-0.938-0.49-1.457
						c-0.159-0.523-0.327-1.074-0.501-1.645c-0.178-0.57-0.305-1.171-0.441-1.781c-0.133-0.611-0.269-1.232-0.404-1.852
						c-0.208-1.252-0.42-2.503-0.554-3.685c-0.123-1.183-0.237-2.285-0.267-3.237C91.788,382.524,91.86,381.253,91.86,381.253z"/>
				</g>
			</g>
			<g>
				<path style="fill:#E6D18E;" d="M125.873,405.328c-3.297,1.378-5.888,1.968-9.253,2.672l-1.252-6.269l-3.754,0.564l1.166,6.41
					c-5.72,0.915-10.088,1.033-10.088,1.033c1.568,12.887,8.027,24.871,8.027,24.871l17.815-7.271
					C128.536,427.338,127.551,411.791,125.873,405.328z"/>
				<path style="fill:#735643;" d="M108.392,404.678c0,0-7.668-22.228,1.417-28.214c3.548,0.178,6.556,11.252,8.42,26.189
					C113.361,404.928,108.392,404.678,108.392,404.678z"/>
			</g>
		</g>
		<g>
			<path style="fill:#D67D56;" d="M299.323,244.998l23.099,25.105c0,0-19.376,16.569-40.772,22.862
				c-21.397,6.293-29.07,4.195-52.563,4.195c-3.357-11.747-4.615-20.978-4.615-20.978s24.297-4.977,41.953-9.229
				C278.95,263.936,285.165,256.868,299.323,244.998z"/>
			<g>
				<path style="fill:#86C7B9;" d="M268.661,352.4c0,0-0.488,18.529,5.805,24.824c-8.67,5.315-14.321,5.663-17.551,11.257
					c-3.231,5.595-19.32,28.81-41.268,20.419c-3.762,0.345-7.398-1.958-7.398-4.615c-4.475-1.259-1.46-5.818,4.318-8.283
					c5.779-2.463,13.673-11.052,18.463-15.841c-6.713,0-14.264,0.341-14.264-4.898c0-5.241,7.831-1.885,15.663-5.94
					c7.831-4.055,9.51-5.733,13.706-5.733C254.108,360.048,266.284,354.778,268.661,352.4z"/>
				<path style="fill:#5E8C82;" d="M208.25,404.285c0,0,0.344-0.067,0.926-0.233c0.292-0.079,0.646-0.153,1.042-0.301
					c0.398-0.136,0.845-0.289,1.335-0.438c0.478-0.188,0.996-0.393,1.543-0.608c0.273-0.106,0.554-0.216,0.841-0.327
					c0.278-0.132,0.563-0.267,0.853-0.404c0.578-0.272,1.176-0.555,1.783-0.841c0.604-0.291,1.178-0.667,1.773-0.999
					c0.591-0.339,1.2-0.651,1.771-1.004c0.546-0.392,1.101-0.753,1.629-1.116c0.536-0.354,1.053-0.698,1.544-1.023
					c0.488-0.331,0.897-0.711,1.31-1.021c0.803-0.645,1.506-1.153,1.985-1.525c0.486-0.364,0.775-0.565,0.775-0.565
					s-0.226,0.262-0.641,0.705c-0.421,0.436-1.006,1.082-1.747,1.821c-0.376,0.362-0.75,0.799-1.221,1.17
					c-0.475,0.367-0.976,0.754-1.494,1.154c-0.525,0.392-1.06,0.811-1.62,1.212c-0.58,0.371-1.197,0.705-1.801,1.062
					c-0.618,0.331-1.212,0.705-1.838,0.994c-0.637,0.268-1.263,0.53-1.87,0.785c-0.305,0.122-0.598,0.258-0.896,0.36
					c-0.304,0.09-0.601,0.178-0.89,0.263c-0.578,0.171-1.123,0.333-1.632,0.456c-1.035,0.197-1.892,0.346-2.506,0.382
					C208.597,404.305,208.25,404.285,208.25,404.285z"/>
				<path style="fill:#5E8C82;" d="M215.647,408.9c0,0,0.274-0.127,0.754-0.351c0.484-0.207,1.158-0.539,1.973-0.92
					c0.821-0.363,1.752-0.845,2.767-1.313c0.515-0.22,1.008-0.524,1.537-0.775c0.522-0.265,1.053-0.533,1.584-0.802
					c0.518-0.29,1.037-0.579,1.547-0.864c0.5-0.302,1.042-0.521,1.493-0.846c0.471-0.296,0.927-0.582,1.359-0.853
					c0.425-0.281,0.868-0.498,1.221-0.769c0.705-0.54,1.329-0.961,1.753-1.273c0.431-0.305,0.689-0.471,0.689-0.471
					s-0.195,0.228-0.557,0.613c-0.369,0.377-0.878,0.941-1.533,1.583c-0.322,0.327-0.732,0.602-1.142,0.925
					c-0.419,0.314-0.86,0.645-1.316,0.986c-0.451,0.354-0.971,0.63-1.483,0.94c-0.516,0.301-1.041,0.606-1.566,0.913
					c-0.546,0.263-1.092,0.526-1.629,0.785c-0.541,0.252-1.068,0.512-1.601,0.71c-1.059,0.41-2.044,0.798-2.92,1.044
					C216.846,408.705,215.647,408.9,215.647,408.9z"/>
				<path style="fill:#5E8C82;" d="M225.629,410.701c0,0,0.735-0.465,1.845-1.1c0.559-0.313,1.203-0.685,1.901-1.065
					c0.694-0.383,1.435-0.792,2.176-1.2c0.741-0.403,1.458-0.845,2.162-1.21c0.664-0.422,1.298-0.799,1.857-1.109
					c1.027-0.721,1.79-1.166,1.79-1.166s-0.521,0.681-1.441,1.622c-0.491,0.422-1.082,0.9-1.73,1.395
					c-0.674,0.447-1.405,0.912-2.153,1.343c-0.771,0.387-1.522,0.813-2.272,1.114c-0.74,0.321-1.439,0.601-2.056,0.798
					C226.487,410.547,225.629,410.701,225.629,410.701z"/>
			</g>
			<g>
				<path style="fill:#405245;" d="M324.321,411.136l-32.445,1.959c0,0-11.79,6.993-28.572,9.51
					c-16.78,2.518-8.284,11.222-6.502,13.005c13.214,0,74.986,0,74.986,0S332.013,418.829,324.321,411.136z"/>
				<path style="fill:#FFFFFF;" d="M290.262,421.117c-0.235,0-0.445-0.167-0.49-0.407c-0.542-2.859-2.646-4.141-2.668-4.153
					c-0.237-0.141-0.315-0.448-0.174-0.686c0.142-0.239,0.449-0.315,0.686-0.174c0.103,0.06,2.514,1.529,3.139,4.827
					c0.052,0.271-0.127,0.532-0.398,0.584C290.324,421.114,290.293,421.117,290.262,421.117z"/>
				<path style="fill:#FFFFFF;" d="M283.416,423.04c-0.231,0-0.439-0.162-0.488-0.398c-0.436-2.106-1.759-3.736-1.772-3.753
					c-0.175-0.213-0.144-0.528,0.069-0.703c0.213-0.178,0.528-0.144,0.703,0.067c0.06,0.074,1.49,1.83,1.978,4.185
					c0.057,0.271-0.117,0.535-0.388,0.591C283.484,423.037,283.45,423.04,283.416,423.04z"/>
				<path style="fill:#FFFFFF;" d="M275.541,424.665c-0.25,0-0.467-0.188-0.496-0.442c-0.198-1.729-0.875-3.07-0.882-3.084
					c-0.125-0.245-0.028-0.547,0.218-0.673c0.247-0.123,0.547-0.027,0.673,0.217c0.03,0.061,0.765,1.508,0.985,3.425
					c0.031,0.274-0.166,0.522-0.439,0.555C275.58,424.664,275.561,424.665,275.541,424.665z"/>
			</g>
			<g>
				<path style="fill:#303D34;" d="M375.926,317.299c0,0,60.263-13.846,60.263,42.793c0,7.953-5.495,18.04-11.596,20.138
					c0,13.846,2.976,21.456-18.421,21.456c-35.242,1.818-64.803,1.996-83.263,1.996c0.63,4.404,0.737,3.855,1.412,7.454
					c-3.356,3.357-16.223,8.671-32.445,1.959c-0.559-3.217-0.977-5.664-2.377-9.511c-5.873,0-24.124-1.537-29.788-24.612
					c-2.593-10.565,0.84-20.768,8.95-26.572c-3.355-10.069-23.212-50.904,2.518-64.609
					C296.911,274.086,343.9,308.767,375.926,317.299z"/>
				<path style="fill:#4C6152;" d="M338.365,334.401c0,0,0.305-0.124,0.844-0.318c0.542-0.184,1.309-0.475,2.241-0.775
					c0.932-0.308,2.023-0.645,3.198-0.985c1.18-0.327,2.455-0.616,3.727-0.921c2.549-0.579,5.117-1.081,7.054-1.394
					c0.967-0.163,1.78-0.256,2.346-0.341c0.567-0.075,0.894-0.104,0.894-0.104s-0.31,0.116-0.855,0.295
					c-0.548,0.169-1.324,0.44-2.265,0.712c-1.879,0.56-4.399,1.22-6.936,1.803c-1.272,0.283-2.544,0.556-3.742,0.8
					c-1.193,0.272-2.312,0.506-3.275,0.69c-0.961,0.19-1.773,0.308-2.337,0.409C338.692,334.362,338.365,334.401,338.365,334.401z"
					/>
				<path style="fill:#4C6152;" d="M305.861,333.097c0,0-0.128-0.487-0.351-1.342c-0.107-0.427-0.255-0.94-0.424-1.529
					c-0.175-0.587-0.372-1.248-0.586-1.971c-0.445-1.438-1.006-3.1-1.676-4.851c-0.313-0.884-0.692-1.774-1.072-2.681
					c-0.353-0.918-0.811-1.805-1.226-2.711c-0.42-0.903-0.913-1.769-1.359-2.641c-0.518-0.829-0.981-1.677-1.493-2.455
					c-0.553-0.747-1.022-1.523-1.553-2.191c-0.548-0.651-1.047-1.292-1.547-1.847c-0.538-0.515-1.018-1.004-1.446-1.44
					c-0.416-0.451-0.876-0.725-1.207-1.014c-0.686-0.557-1.078-0.874-1.078-0.874s0.433,0.26,1.19,0.715
					c0.363,0.251,0.867,0.481,1.334,0.887c0.482,0.388,1.026,0.829,1.607,1.33c0.549,0.529,1.102,1.146,1.712,1.779
					c0.589,0.649,1.131,1.4,1.717,2.158c0.545,0.784,1.071,1.621,1.603,2.473c0.467,0.886,0.983,1.767,1.422,2.685
					c0.412,0.93,0.868,1.841,1.218,2.778c0.383,0.925,0.714,1.851,1.008,2.755c0.324,0.895,0.553,1.786,0.79,2.624
					c0.234,0.838,0.414,1.642,0.599,2.377c0.335,1.48,0.528,2.732,0.658,3.605C305.828,332.592,305.861,333.097,305.861,333.097z"/>
				<path style="fill:#242E27;" d="M346.026,368.045c0,0,70.963,4.8,84.743,7.213c-1.784,2.619-4.714,4.31-6.177,4.972
					C413.61,376.94,360.105,369.48,346.026,368.045z"/>
				<path style="fill:#4C6152;" d="M288.514,374.711c0,0,0.402-0.367,1.217-0.985c0.822-0.603,2.031-1.497,3.69-2.443
					c1.659-0.938,3.707-2.048,6.193-3.007c2.48-0.954,5.34-1.945,8.576-2.525c3.223-0.586,6.775-1.058,10.546-0.948
					c0.943-0.031,1.895,0.044,2.858,0.115c0.962,0.075,1.947,0.113,2.922,0.224c1.953,0.215,3.947,0.435,5.975,0.658
					c4.057,0.461,8.247,0.938,12.506,1.422c4.257,0.504,8.581,1.017,12.905,1.528c4.323,0.522,8.637,1.121,12.888,1.676
					c4.252,0.546,8.429,1.141,12.47,1.726c4.043,0.572,7.949,1.136,11.64,1.769c3.692,0.612,7.184,1.192,10.406,1.727
					c3.209,0.617,6.15,1.183,8.757,1.684c2.613,0.465,4.858,1.044,6.712,1.485c3.702,0.9,5.817,1.415,5.817,1.415
					s-2.131-0.445-5.86-1.226c-1.862-0.393-4.114-0.912-6.739-1.309c-2.613-0.445-5.563-0.947-8.78-1.495
					c-3.227-0.483-6.725-1.007-10.423-1.561c-3.695-0.573-7.609-1.063-11.649-1.63c-4.041-0.564-8.218-1.136-12.471-1.659
					c-4.251-0.533-8.565-1.106-12.89-1.61c-4.319-0.534-8.639-1.068-12.892-1.595c-4.255-0.506-8.442-1.004-12.495-1.486
					c-2.026-0.24-4.02-0.477-5.97-0.707c-0.975-0.126-1.933-0.176-2.884-0.267c-0.949-0.086-1.888-0.175-2.817-0.157
					c-3.718-0.167-7.231,0.244-10.429,0.772c-0.797,0.157-1.576,0.31-2.339,0.461c-0.752,0.195-1.487,0.388-2.203,0.574
					c-0.723,0.166-1.401,0.413-2.071,0.622c-0.667,0.218-1.322,0.41-1.934,0.663c-2.492,0.889-4.556,1.938-6.23,2.83
					C290.18,373.284,288.514,374.711,288.514,374.711z"/>
				<path style="fill:#4C6152;" d="M307.19,404.62c-10.364,0-17.084-0.242-17.18-0.245c-0.275-0.011-0.491-0.242-0.482-0.519
					c0.011-0.275,0.208-0.475,0.519-0.481c0.138,0.006,13.952,0.504,32.592,0.065c0.289-0.014,0.505,0.213,0.512,0.488
					c0.006,0.276-0.212,0.505-0.488,0.512C316.974,404.573,311.731,404.62,307.19,404.62z"/>
			</g>
			<g>
				<path style="fill:#86C7B9;" d="M226.709,272.962c5.364,1.637,6.993,5.878,4.476,16.228c-2.518,10.349-1.958,12.306-9.51,10.068
					c-6.153,3.637-9.905,0.59-16.898-0.797c-6.992-1.386-14.312-2.166-13.417-12.494c-1.583-2.652-1.333-7.442,0.453-9.589
					c-0.453-3.167,0.463-6.667,3.38-8.833c2.471-5.656,7.461-12.48,13.055-10.242C213.843,259.542,223.073,265.685,226.709,272.962z
					"/>
				<path style="fill:#5E8C82;" d="M218.878,270.31c-2.089-2.422-4.299-4.743-6.689-6.828c-1.205-1.013-2.48-2.006-3.881-2.577
					c-0.692-0.28-1.441-0.404-1.993-0.149c-0.103,0.052-0.336,0.188-0.475,0.279c-0.114,0.114-0.254,0.182-0.356,0.323
					c-0.247,0.232-0.376,0.545-0.493,0.856c-0.178,0.654-0.108,1.401,0.086,2.124c0.194,0.727,0.503,1.439,0.855,2.131
					c0.705,1.389,1.612,2.686,2.54,3.963c1.879,2.545,4.007,4.925,6.234,7.193l0.143,0.148l-0.021,0.217l-0.208,2.117
					c-0.03,0.354-0.099,0.707-0.081,1.061l-0.001,1.061l-0.002,1.064c0.01,0.354,0.073,0.703,0.108,1.055l0.122,1.056
					c0.02,0.357,0.138,0.693,0.213,1.039l0.252,1.032c0.066,0.352,0.226,0.67,0.338,1.006l0.371,1
					c0.135,0.328,0.32,0.634,0.479,0.952c0.173,0.312,0.312,0.645,0.513,0.939l0.604,0.886c0.382,0.609,0.895,1.118,1.34,1.686
					c-0.486-0.526-1.058-0.989-1.482-1.577l-0.67-0.857c-0.224-0.286-0.386-0.613-0.583-0.92c-0.182-0.314-0.392-0.615-0.552-0.942
					l-0.446-0.999c-0.139-0.337-0.325-0.659-0.404-1.018l-0.303-1.055c-0.093-0.353-0.227-0.699-0.263-1.063l-0.17-1.084
					c-0.05-0.362-0.129-0.723-0.154-1.087l-0.042-1.095l-0.042-1.097c-0.032-0.367,0.023-0.73,0.04-1.094l0.169-2.185l0.122,0.363
					c-2.281-2.265-4.461-4.637-6.418-7.214c-0.971-1.293-1.861-2.656-2.596-4.127c-0.363-0.737-0.686-1.504-0.896-2.326
					c-0.204-0.816-0.303-1.717-0.045-2.612c0.157-0.432,0.365-0.872,0.705-1.194c0.142-0.182,0.361-0.314,0.544-0.466
					c0.198-0.121,0.311-0.19,0.564-0.317c0.949-0.409,1.898-0.129,2.653,0.201c1.542,0.707,2.782,1.774,3.977,2.856
					c1.188,1.094,2.282,2.273,3.32,3.497C216.945,267.755,217.95,269.005,218.878,270.31z"/>
				<path style="fill:#5E8C82;" d="M195.985,268.717c0,0,1.085,0.834,2.712,2.085c1.625,1.241,3.779,2.904,6.027,4.401
					c1.117,0.758,2.269,1.454,3.378,2.038c1.111,0.576,2.192,1.026,3.156,1.224c0.48,0.091,0.931,0.153,1.326,0.122
					c0.201-0.001,0.386-0.022,0.552-0.07c0.17-0.034,0.328-0.069,0.455-0.137c0.274-0.102,0.474-0.218,0.603-0.315
					c0.135-0.088,0.207-0.135,0.207-0.135s-0.06,0.061-0.172,0.177c-0.11,0.121-0.276,0.297-0.55,0.446
					c-0.126,0.095-0.285,0.16-0.461,0.227c-0.173,0.081-0.368,0.138-0.583,0.176c-0.427,0.107-0.926,0.122-1.459,0.077
					c-0.535-0.042-1.1-0.161-1.683-0.33c-0.577-0.18-1.18-0.391-1.773-0.669c-0.595-0.272-1.205-0.565-1.792-0.915
					c-0.594-0.338-1.181-0.707-1.76-1.086c-2.3-1.54-4.376-3.358-5.846-4.801c-0.739-0.717-1.312-1.36-1.721-1.799
					C196.199,268.988,195.985,268.717,195.985,268.717z"/>
				<path style="fill:#5E8C82;" d="M193.845,278.819c0,0,0.326,0.162,0.896,0.447c0.564,0.292,1.39,0.672,2.371,1.134
					c0.985,0.453,2.136,0.973,3.386,1.472c1.252,0.493,2.597,0.987,3.97,1.351c0.684,0.189,1.374,0.347,2.058,0.451
					c0.684,0.098,1.358,0.183,2.008,0.172c0.65-0.002,1.273-0.063,1.844-0.204c0.281-0.08,0.562-0.146,0.81-0.267
					c0.263-0.093,0.5-0.215,0.715-0.355c0.233-0.117,0.417-0.282,0.603-0.429c0.198-0.136,0.35-0.304,0.495-0.46
					c0.316-0.295,0.495-0.634,0.686-0.884c0.308-0.554,0.484-0.87,0.484-0.87s-0.026,0.087-0.076,0.25
					c-0.056,0.161-0.108,0.413-0.235,0.71c-0.153,0.282-0.286,0.664-0.569,1.026c-0.247,0.385-0.602,0.787-1.063,1.129
					c-0.444,0.371-1.018,0.65-1.642,0.865c-0.627,0.209-1.315,0.34-2.026,0.367c-0.711,0.038-1.444,0.008-2.174-0.097
					c-0.731-0.1-1.461-0.253-2.179-0.441c-2.868-0.789-5.498-2.141-7.366-3.283C194.972,279.751,193.845,278.819,193.845,278.819z"
					/>
				<path style="fill:#5E8C82;" d="M193.845,285.786c0,0,0.328,0.117,0.902,0.323c0.569,0.212,1.398,0.474,2.386,0.786
					c1.975,0.599,4.646,1.36,7.337,1.499c0.671,0.053,1.338,0.021,1.988-0.033c0.641-0.094,1.278-0.179,1.847-0.4
					c0.582-0.191,1.095-0.477,1.557-0.79c0.438-0.342,0.828-0.709,1.128-1.105c0.308-0.392,0.53-0.796,0.732-1.159
					c0.17-0.375,0.312-0.714,0.415-0.997c0.173-0.576,0.287-0.911,0.287-0.911s-0.026,0.346-0.099,0.959
					c-0.057,0.302-0.144,0.668-0.258,1.088c-0.145,0.41-0.311,0.88-0.604,1.345c-0.276,0.473-0.661,0.938-1.137,1.364
					c-0.491,0.401-1.059,0.787-1.709,1.029c-1.286,0.544-2.77,0.675-4.199,0.608c-2.877-0.16-5.571-1.118-7.487-1.963
					C195.012,286.563,193.845,285.786,193.845,285.786z"/>
				<path style="fill:#5E8C82;" d="M195.985,293.945c0,0,0.295,0.002,0.813,0.006c0.515,0.014,1.251-0.011,2.126-0.032
					c1.745-0.067,4.084-0.188,6.271-0.796c0.549-0.139,1.078-0.33,1.584-0.544c0.49-0.239,0.986-0.462,1.394-0.775
					c0.424-0.293,0.785-0.633,1.1-0.983c0.293-0.367,0.544-0.74,0.727-1.117c0.182-0.378,0.308-0.745,0.41-1.081
					c0.087-0.337,0.139-0.643,0.184-0.894c0.047-0.506,0.088-0.805,0.088-0.805s0.048,0.289,0.107,0.811
					c0.004,0.261,0.012,0.582-0.011,0.951c-0.036,0.368-0.093,0.788-0.244,1.23c-0.142,0.443-0.363,0.905-0.666,1.355
					c-0.316,0.436-0.693,0.877-1.162,1.233c-0.915,0.748-2.072,1.256-3.244,1.581c-2.365,0.644-4.792,0.588-6.559,0.403
					C197.126,294.286,195.985,293.945,195.985,293.945z"/>
			</g>
			<g>
				<path style="fill:#C1CC3F;" d="M347.525,203.618c0,0-9.092-0.471-25.033,19.284c-2.365,2.928-11.616,10.543-23.169,22.096
					c3.821,11.07,11.421,23.72,23.099,25.105c7.342,10.137,28.18,17.827,33.633,27.478c5.454,9.649,4.712,20.234,2.613,31.981
					c12.587-2.518,30.692-4.85,36.692,3.535c15.849,22.148,37.053,17.346,40.828,26.995c9.44-9.439,5.235-10.27,2.719-19.5
					c-2.518-9.23-1.556-20.402-6.348-37.411c-4.644-16.482-8.538-26.998-17.349-46.297
					C406.4,237.585,377.594,194.288,347.525,203.618z"/>
				<path style="fill:#828A2B;" d="M348.415,289.783c3.339,2.51,6.102,5.075,7.64,7.798c0.3,0.531,0.608,1.103,0.857,1.624
					c4.655-13.631,12.01-39.108,12.01-53.089c-2.517,11.187-9.929,30.067-9.929,30.067L348.415,289.783z"/>
				<path style="fill:#828A2B;" d="M365.564,319.325c0,0,20.417-12.515,20.417-36.849
					C388.499,293.106,385.702,312.26,365.564,319.325z"/>
				<path style="fill:#828A2B;" d="M322.91,270.211l-0.977-0.215c4.077-18.503,8.206-40.671,8.248-40.893l0.982,0.183
					C331.123,229.508,326.99,251.692,322.91,270.211z"/>
			</g>
			<g>
				<g>
					<path style="fill:#405245;" d="M187.492,376.589c-0.172-3.821,2.462-28.902,3.622-33.953
						c0.956-4.167,3.786-15.002,5.731-21.949c0.731-2.612,4.641-23.996,5.161-26.082c4.001-0.378,6.083-1.664,6.083-1.664
						c-1.992,9.249-4.081,25.249-5.777,30.614c-1.206,3.814-2.934,10.671-4.525,17.126c-1.14,4.623-1.942,31.442-1.801,34.577
						L187.492,376.589z"/>
					<path style="fill:#405245;" d="M281.629,126.582c-2.654,5.84-8.748,11.12-18.628,16.141
						c-5.601,2.847-14.823,9.513-21.333,14.412c1.035-3.086,2.124-6.137,3.201-9.144c4.462-12.457,9.076-25.337,9.172-39.494
						l-5.999-0.041c-0.09,13.136-4.331,24.977-8.821,37.512c-2.65,7.395-5.389,15.044-7.229,23.033
						c-1.661,7.206-3.179,14.586-4.64,21.85c-0.637-4.496-1.479-8.737-2.541-12.212c-2.236-7.314-12.893-24.214-14.269-26.387
						c-5.846-9.23-10.302-30.651-13.362-36.262l-5.268,2.873c2.733,5.011,8.494,27.953,13.462,36.436
						c4.738,8.091,11.701,18.559,13.7,25.094c2.624,8.582,3.808,22.376,3.828,32.374c-3.53,16.691-7.329,32.362-13.496,47.946
						c0,0,2.621,1.722,4.691,3.909c0.877-1.272,3.712-9.008,5.09-13.269c15.842-8.499,37.919-31.013,40.214-34.326l-3.553-3.415
						c-1.943,2.808-22.819,24.77-34.32,30.097c4.418-15.266,7.568-31.006,10.645-46.386c1.78-8.896,3.621-18.096,5.667-26.977
						c0.259-1.122,0.542-2.239,0.837-3.355c3.662-2.861,19.407-15.039,27.045-18.922c11.141-5.661,18.131-11.878,21.372-19.006
						L281.629,126.582z"/>
					<g>
						<path style="fill:#68AD7C;" d="M200.495,121.308c-3.054,5.719-15.121,14.902-24.219,5.805
							c-15.379,9.016-32.935-4.778-28.716-17.227c-7.263-5.077-7.062-21.438,3.52-23.81c0-9.637,12.373-30.154,36.587-17.719
							c11.622-11.623,29.867-3.536,28.102,13.251c15.329,4.975,12.746,28.277-2.677,29.649
							C215.962,119.031,207.84,123.383,200.495,121.308z"/>
						<path style="fill:#548C65;" d="M164.301,113.378c0,0,10.185,9.875,21.56-1.5C182.11,119.378,171.241,123.128,164.301,113.378z
							"/>
						<path style="fill:#548C65;" d="M189.11,102.378c0,0,13.25,6.75,21-3.5C208.61,104.628,197.735,111.003,189.11,102.378z"/>
						<path style="fill:#548C65;" d="M152.36,96.922c0,0-1.533-8.044,9.233-12.794C154.36,84.128,150.11,91.717,152.36,96.922z"/>
						<path style="fill:#548C65;" d="M170.648,92.128c0,0,0.844-10.5,13.653-8C178.11,81.128,170.648,82.378,170.648,92.128z"/>
						<path style="fill:#548C65;" d="M216.36,90.526c0,0-1.5-8.897-13.5-8.897C208.11,79.628,216.36,81.423,216.36,90.526z"/>
						<path style="fill:#548C65;" d="M147.561,109.886c0,0,4.931-10.58,16.74-3.294C161.86,101.628,149.761,100.395,147.561,109.886
							z"/>
						<path style="fill:#548C65;" d="M187.667,68.358c0,0-6.285,7.896,6.443,10.771C188.86,79.128,179.831,76.194,187.667,68.358z"
							/>
					</g>
					<g>
						<path style="fill:#68AD7C;" d="M250,150.029c4.36-8.229,25.503-8.229,27.533,4.755c20.319-4.48,34.854,17.151,25.692,29.457
							c6.24,8.251-6.261,26.502-18.865,25.331c-1.795,10.35-31,24.64-37.667,6.1c-17.087,8.727-33.663-5.154-25.666-23.161
							c-15.855-8.95-6.857-35.8,9.92-33.36C230.555,149.487,244.083,144.112,250,150.029z"/>
						<path style="fill:#548C65;" d="M230.947,159.15c0,0,14.094,3.927,5.878,15.577C243.61,170.378,242.784,159.15,230.947,159.15z
							"/>
						<path style="fill:#548C65;" d="M221.027,192.51c0,0,6.408-7.829,14.996-1.98C236.023,185.628,223.079,184.137,221.027,192.51z
							"/>
						<path style="fill:#548C65;" d="M236.023,205.751c0,0,5.123-9.573,16.605-2.848
							C249.11,197.378,238.436,197.623,236.023,205.751z"/>
						<path style="fill:#548C65;" d="M246.359,162.378c0,0,8.002-10.5,18.502,0C261.61,154.878,249.607,152.128,246.359,162.378z"/>
						<path style="fill:#548C65;" d="M246.694,215.671c0,0,4.023-11.502,16.917-6.293
							C260.902,206.67,248.027,203.618,246.694,215.671z"/>
						<path style="fill:#548C65;" d="M281.633,210.999c0,0-9.522-3.953-14.022,3.713C267.61,210.878,272.905,205.62,281.633,210.999
							z"/>
					</g>
					<g>
						<path style="fill:#68AD7C;" d="M271.277,104.834c9.28-3.022,9.581-16.595,0.068-16.542
							c2.045-5.539-3.526-14.707-10.604-11.868c-0.636-6.342-11.703-8.668-15.785,0.816c-6.414-1.564-13.717,5.996-10.471,11.337
							c-5.839-1.425-10.967,8.712-4.768,13.575c-3.276,4.478,1.025,14.443,9.155,11.603c2.963,4.876,10.067,7.271,13.254,0.962
							C256.021,121.127,273.859,121.987,271.277,104.834z"/>
						<path style="fill:#548C65;" d="M234.485,88.577c0,0,9.376-6.448,13.626,3.552C248.11,84.878,240.573,82.489,234.485,88.577z"
							/>
						<path style="fill:#548C65;" d="M271.277,104.834c0,0-1.333-11.477-10.554-7.641C264.478,94.357,271.277,94.44,271.277,104.834
							z"/>
						<path style="fill:#548C65;" d="M252.125,114.716c0,0-3.043-10.005,8.599-11.641
							C254.027,102.509,248.527,108.344,252.125,114.716z"/>
						<path style="fill:#548C65;" d="M229.716,102.152c0,0,8.121-6.841,11.382,6.192
							C241.099,101.378,236.257,95.611,229.716,102.152z"/>
						<path style="fill:#548C65;" d="M271.346,88.291c0,0-5.818-7.685-13.735-0.883C260.724,82.773,269.944,81.023,271.346,88.291z"
							/>
					</g>
					<g>
						<path style="fill:#68AD7C;" d="M279.908,129.652c-6.462,6.461,5.257,14.717,9.107,10.867
							c2.845,4.236,12.086,4.977,13.682-1.418c4.764,2.765,11.996-3.809,7.42-11.471c6.415-2.919,4.628-12.643-0.757-13.073
							c4.028-6.192-6.963-20.375-17.662-9.676c-5.695-3.489-14.266,3.369-11.46,8.796
							C273.776,113.162,266.587,122.776,279.908,129.652z"/>
						<path style="fill:#548C65;" d="M280.238,113.677c0,0,11.372-0.5,8.372,8.726C291.372,119.64,291.475,111.598,280.238,113.677z
							"/>
						<path style="fill:#548C65;" d="M309.36,114.557c0,0-6.324,5.241-10.037-1.219C300.61,119.378,306.61,119.987,309.36,114.557z"
							/>
						<path style="fill:#548C65;" d="M302.697,139.101c0,0-8.337-4.223-1.587-10.973
							C295.61,130.128,295.534,137.074,302.697,139.101z"/>
						<path style="fill:#548C65;" d="M289.016,140.519c0,0,6.655-6.742,0-9.566C292.86,130.953,296.421,137.16,289.016,140.519z"/>
						<path style="fill:#548C65;" d="M295.61,125.128c0,0,9.25-5.5,11.75,4.5C307.36,124.378,302.205,119.304,295.61,125.128z"/>
					</g>
				</g>
				<g>
					<path style="fill:#735643;" d="M173.707,369.741c2.123-4.899,8.465,2.379,18.32,2.379c9.855,0,14.069-1.396,14.069,3.4
						s-7.132,52.244-16.194,52.244c-9.063,0-12.839-1.522-19.971-4.391c-7.132-2.868-9.991-0.629-6.254-8.461
						C167.414,407.081,168.252,382.327,173.707,369.741z"/>
					<path style="fill:#574134;" d="M176.644,379.951c0,0-1.283,8.928,5.217,8.928s3.417,10.553,9.708,9.026
						c-3.591,3.591-7.505-1.144-7.505-5.587s-3.204-1.197-5.704-1.197S174.927,383.773,176.644,379.951z"/>
					<path style="fill:#574134;" d="M187.11,378.132c0,0,4.75,5.148,6.75,11.572C193.86,385.128,194.11,378.132,187.11,378.132z"/>
					<path style="fill:#574134;" d="M172.694,408.9c0,0,7.538,2.014,11.37-1.819C184.064,410.545,175.872,412.078,172.694,408.9z"/>
					<path style="fill:#574134;" d="M193.861,401.731c0,0-1.501,8.647-6.751,11.647s-7.917,7.167-12.917,3.667
						c2.5,4.5,6.667,1.166,10.834-0.667C189.194,414.545,193.861,411.083,193.861,401.731z"/>
					<path style="fill:#574134;" d="M198.653,377.847c0.803-1.591,2.333,2.5,1.514,4.125
						C199.347,383.597,197.36,380.41,198.653,377.847z"/>
					<path style="fill:#574134;" d="M174.448,404.27c0.905,0.803-1.422,2.333-2.346,1.514
						C171.177,404.963,172.991,402.977,174.448,404.27z"/>
					<path style="fill:#574134;" d="M181.52,385.661c-0.566,0.794-1.991-0.941-1.413-1.752
						C180.686,383.098,182.433,384.382,181.52,385.661z"/>
					<path style="fill:#574134;" d="M178.191,375.055c-0.566,0.794-1.991-0.941-1.413-1.752
						C177.357,372.493,179.104,373.777,178.191,375.055z"/>
					<path style="fill:#574134;" d="M198.083,403.829c-0.956,0.191-0.808-2.049,0.169-2.244
						C199.229,401.389,199.624,403.521,198.083,403.829z"/>
					<path style="fill:#574134;" d="M195.561,407c-0.788,0.158-0.666-1.688,0.139-1.85C196.505,404.99,196.831,406.748,195.561,407z
						"/>
					<path style="fill:#574134;" d="M191.868,423.486c-0.788,0.158-0.666-1.689,0.139-1.85
						C192.813,421.475,193.138,423.233,191.868,423.486z"/>
					<path style="fill:#574134;" d="M189.637,420.221c-0.788,0.158-0.666-1.688,0.139-1.85
						C190.581,418.211,190.906,419.968,189.637,420.221z"/>
				</g>
			</g>
			<g>
				<path style="fill:#423B37;" d="M261.658,192.835c0,0,26.412,25.003,66.268,0.74c-0.446-13.047,2.607-30.879-3.757-37.242
					c-6.363-6.362-11.747-11.047-23.914-11.047s-17.201,0-24.753,3.776c-7.552,3.776-20.896,16.959-25.173,21.234
					c-4.276,4.276-13.34,5.032-4.615,13.758C248.232,190.176,252.008,197.169,261.658,192.835z"/>
				<path style="fill:#D67D56;" d="M261.658,192.835c0,0,8.251-0.98,22.655-15.385c4.755,4.755,14.963,5.665,22.515,5.665
					c-1.397-3.566-2.17-9.014,2.238-11.118c6.154-2.936,16.222,5.874,13.426,15.104c3.208,3.209,11.327,14.28,25.033,16.518
					c-13.846,5.438-16.853,25.577-16.853,25.577s-8.352-6.438-17.022-9.234c-4.583,6.018-7.87,7.626-11.227,7.626
					c-3.357,0-8.658-3.556-12.377-6.363c-1.189,1.679-4.295,7.523-7.481,0.699c-4.44-9.51-3.828-12.918-5.595-14.684
					C274.035,204.302,266.273,200.246,261.658,192.835z"/>
				<path style="fill:#94563B;" d="M322.492,187.1c0,0,0.048,0.413-0.162,0.98c-0.04,0.148-0.121,0.286-0.201,0.439
					c-0.086,0.147-0.154,0.326-0.285,0.461c-0.121,0.143-0.237,0.302-0.376,0.444c-0.127,0.156-0.301,0.261-0.456,0.391
					c-0.165,0.114-0.331,0.228-0.495,0.34c-0.173,0.094-0.363,0.149-0.535,0.222c-0.172,0.071-0.346,0.123-0.507,0.174
					c-0.159,0.058-0.329,0.048-0.476,0.064c-0.596,0.046-0.982-0.02-0.982-0.02s0.327-0.268,0.802-0.525
					c0.116-0.073,0.252-0.121,0.377-0.212c0.124-0.09,0.253-0.187,0.392-0.269c0.139-0.084,0.276-0.179,0.424-0.257l0.397-0.314
					c0.136-0.101,0.294-0.177,0.404-0.302c0.118-0.118,0.253-0.215,0.376-0.32c0.13-0.098,0.23-0.217,0.342-0.318
					c0.101-0.109,0.228-0.194,0.313-0.297C322.22,187.401,322.492,187.1,322.492,187.1z"/>
				<path style="fill:#94563B;" d="M311.725,183.324c0,0-2.518-6.992,1.118-6.992c3.636,0,7.551,5.874,3.636,8.392
					C315.081,182.066,313.472,181.577,311.725,183.324z"/>
				<path style="fill:#94563B;" d="M313.65,219.96c0,0,0.111-0.214,0.306-0.588c0.211-0.358,0.447-0.912,0.774-1.541
					c0.165-0.314,0.308-0.675,0.49-1.037c0.17-0.368,0.369-0.745,0.537-1.155c0.18-0.404,0.35-0.827,0.549-1.245
					c0.208-0.414,0.358-0.861,0.53-1.299c0.366-0.867,0.714-1.74,0.99-2.58c0.142-0.418,0.297-0.817,0.441-1.198
					c0.155-0.377,0.249-0.749,0.359-1.087c0.205-0.68,0.421-1.241,0.552-1.64c0.141-0.396,0.235-0.623,0.235-0.623
					s-0.007,0.24-0.044,0.659c-0.047,0.417-0.085,1.021-0.185,1.738c-0.051,0.359-0.082,0.755-0.199,1.152
					c-0.098,0.402-0.199,0.829-0.321,1.265c-0.128,0.434-0.219,0.897-0.388,1.343c-0.171,0.444-0.344,0.896-0.517,1.348
					c-0.188,0.445-0.353,0.9-0.577,1.321c-0.208,0.429-0.436,0.839-0.643,1.242c-0.194,0.408-0.454,0.767-0.671,1.12
					c-0.225,0.35-0.43,0.683-0.651,0.972c-0.432,0.583-0.822,1.044-1.107,1.358C313.834,219.803,313.65,219.96,313.65,219.96z"/>
				<path style="fill:#94563B;" d="M297.319,222.902c0,0,0.365-0.463,0.761-1.172c0.101-0.176,0.194-0.371,0.288-0.576
					c0.103-0.2,0.161-0.432,0.25-0.651c0.128-0.458,0.221-0.946,0.197-1.439c0.001-0.245-0.045-0.492-0.075-0.734
					c-0.082-0.234-0.107-0.481-0.192-0.708c-0.098-0.222-0.176-0.446-0.254-0.661c-0.112-0.199-0.209-0.396-0.298-0.582
					c-0.166-0.379-0.384-0.654-0.492-0.883c-0.12-0.221-0.185-0.355-0.185-0.355s0.123,0.074,0.331,0.221
					c0.194,0.157,0.527,0.341,0.81,0.68c0.15,0.162,0.315,0.341,0.477,0.539c0.137,0.217,0.286,0.449,0.423,0.699
					c0.125,0.255,0.226,0.542,0.321,0.831c0.055,0.301,0.123,0.612,0.134,0.927c-0.013,0.317-0.016,0.634-0.096,0.936
					c-0.042,0.31-0.181,0.584-0.284,0.855c-0.26,0.518-0.572,0.952-0.903,1.255C297.892,222.712,297.319,222.902,297.319,222.902z"
					/>
				<path style="fill:#423B37;" d="M275.503,201.777c0,0-0.238-0.822-0.048-2.061c0.064-0.304,0.105-0.647,0.232-0.987
					c0.104-0.349,0.252-0.707,0.444-1.064c0.172-0.366,0.438-0.71,0.697-1.057c0.306-0.319,0.598-0.664,0.985-0.916
					c0.19-0.128,0.371-0.268,0.57-0.379c0.204-0.101,0.416-0.189,0.622-0.278c0.402-0.211,0.857-0.232,1.264-0.325
					c0.414-0.069,0.817-0.015,1.189-0.009c0.374,0.001,0.705,0.145,1.012,0.215c0.618,0.133,1.061,0.442,1.373,0.614
					c0.309,0.188,0.471,0.311,0.471,0.311s-0.214,0.038-0.564,0.076c-0.174,0.016-0.384,0.041-0.614,0.048
					c-0.231-0.003-0.492,0.061-0.764,0.096c-0.271,0.059-0.565,0.049-0.852,0.145c-0.285,0.092-0.594,0.123-0.879,0.238
					c-0.276,0.139-0.591,0.185-0.851,0.365c-0.136,0.075-0.27,0.153-0.411,0.219c-0.134,0.08-0.253,0.188-0.382,0.276
					c-0.275,0.154-0.482,0.412-0.735,0.607c-0.212,0.244-0.456,0.458-0.649,0.717c-0.205,0.248-0.403,0.497-0.576,0.753
					c-0.19,0.244-0.341,0.501-0.508,0.729C275.913,201.11,275.503,201.777,275.503,201.777z"/>
				<path style="fill:#423B37;" d="M285.105,202.142c0.975,0.851,1.189,2.201,0.478,3.016c-0.71,0.816-2.078,0.785-3.053-0.064
					c-0.975-0.852-1.189-2.201-0.477-3.016C282.764,201.263,284.131,201.292,285.105,202.142z"/>
				<path style="fill:#70645D;" d="M246.359,185.561c0,0,0.123-0.003,0.354-0.008c0.227-0.033,0.558-0.081,0.98-0.143
					c0.417-0.049,0.913-0.24,1.481-0.387c0.576-0.129,1.187-0.406,1.86-0.683c0.335-0.137,0.685-0.279,1.047-0.428
					c0.181-0.074,0.364-0.149,0.551-0.226c0.177-0.099,0.357-0.199,0.54-0.301c0.73-0.406,1.494-0.839,2.297-1.261
					c0.823-0.383,1.56-0.991,2.368-1.497c0.797-0.527,1.606-1.063,2.416-1.6c0.808-0.538,1.543-1.185,2.307-1.762
					c0.76-0.585,1.508-1.16,2.232-1.718c0.364-0.275,0.723-0.548,1.073-0.813c0.344-0.275,0.66-0.567,0.979-0.84
					c0.634-0.55,1.233-1.071,1.786-1.552c1.102-0.967,2.065-1.729,2.72-2.284c0.67-0.541,1.053-0.85,1.053-0.85
					s-0.333,0.359-0.917,0.988c-0.6,0.614-1.428,1.522-2.475,2.561c-0.523,0.521-1.087,1.087-1.685,1.684
					c-0.302,0.296-0.601,0.613-0.927,0.914c-0.342,0.284-0.691,0.574-1.046,0.869c-0.715,0.585-1.454,1.19-2.204,1.805
					c-0.768,0.594-1.502,1.256-2.318,1.812c-0.83,0.536-1.661,1.072-2.478,1.6c-0.828,0.513-1.602,1.078-2.46,1.451
					c-0.833,0.415-1.649,0.79-2.419,1.151c-0.192,0.09-0.382,0.179-0.568,0.267c-0.197,0.065-0.392,0.13-0.582,0.193
					c-0.382,0.125-0.75,0.247-1.104,0.363c-0.353,0.115-0.691,0.225-1.013,0.329c-0.32,0.107-0.652,0.123-0.947,0.185
					c-0.602,0.083-1.107,0.217-1.547,0.219c-0.438,0.012-0.775,0.013-1.003,0.004C246.48,185.577,246.359,185.561,246.359,185.561z"
					/>
			</g>
			<g>
				<path style="fill:#405245;" d="M424.593,380.23c0,0-4.957,14.384-18.421,21.456c-5.074,8.751-9.811,19.504-13.885,20.919
					c-3.963,1.377-12.927,2.936-12.927,13.005c16.782,0,26.352,0,26.352,0s20.648-13.253,38.328-34.25
					C442.048,391.19,435.11,382.69,424.593,380.23z"/>
				<path style="fill:#FFFFFF;" d="M404.11,418.815c-0.128,0-0.256-0.049-0.354-0.147c-1.601-1.601-4.896-0.994-4.927-0.987
					c-0.277,0.052-0.534-0.125-0.586-0.398c-0.052-0.27,0.126-0.532,0.396-0.585c0.157-0.031,3.847-0.714,5.823,1.263
					c0.195,0.195,0.195,0.512,0,0.707C404.366,418.766,404.238,418.815,404.11,418.815z"/>
				<path style="fill:#FFFFFF;" d="M407.61,412.44c-0.128,0-0.256-0.049-0.354-0.147c-1.883-1.883-4.975-1.007-5.005-0.999
					c-0.271,0.077-0.543-0.075-0.621-0.339s0.073-0.542,0.338-0.62c0.149-0.043,3.686-1.059,5.995,1.251
					c0.195,0.195,0.195,0.512,0,0.707C407.866,412.391,407.738,412.44,407.61,412.44z"/>
				<path style="fill:#FFFFFF;" d="M411.735,405.565c-0.128,0-0.256-0.049-0.354-0.147c-1.878-1.878-5.071-0.769-5.103-0.758
					c-0.261,0.093-0.546-0.042-0.639-0.303c-0.093-0.26,0.043-0.546,0.303-0.639c0.155-0.056,3.824-1.331,6.146,0.992
					c0.195,0.195,0.195,0.512,0,0.707C411.991,405.516,411.863,405.565,411.735,405.565z"/>
			</g>
			<path style="fill:#D67D56;" d="M268.661,352.4c0,0,35.718-10.462,69.704-17.999c5.114-10.575,14.418-36.904,20.627-58.218
				c-8.132-4.936-27.132-8.868-36.57-6.08c-6.852,27.238-8.274,43.783-13.729,56.846C290.653,337.495,280.97,343.562,268.661,352.4z
				"/>
		</g>
		<g>
			<g>
				<path style="fill:#735643;" d="M75.953,435.61c0,0,16.001-6.712,26.74-8.671c10.74-1.958,8.314-9.539,18.197-6.168
					c9.883,3.37,8.485,6.993,17.435,6.993c8.951,0,16.503-3.37,23.775,0c7.272,3.37,26.097,5.328,33.886,2.531
					c7.789-2.798,16.18-2.549,22.893,1.383c6.713,3.932,16.781-4.738,29.089,3.932C240.694,435.61,75.953,435.61,75.953,435.61z"/>
				<path style="fill:#574134;" d="M109.61,431.628c0,0,8.25-6.5,17-2.25C124.235,427.003,115.11,423.878,109.61,431.628z"/>
				<path style="fill:#574134;" d="M143.86,431.628c0,0,12.5-2.5,20,0C161.36,429.128,150.36,427.647,143.86,431.628z"/>
			</g>
			<path style="fill:#735643;" d="M45.36,435.61c0,0,6.233-0.105,17.143-0.29c5.454-0.074,12.078-0.163,19.675-0.266
				c7.597-0.105,16.168-0.227,25.519-0.285c9.351-0.077,19.48-0.16,30.194-0.248c10.714-0.085,22.013-0.205,33.701-0.21
				c23.376-0.064,48.31-0.132,73.245-0.199c24.934,0.066,49.869,0.134,73.245,0.197c11.689,0.005,22.986,0.118,33.7,0.207
				c10.714,0.088,20.844,0.172,30.194,0.25c9.35,0.059,17.922,0.177,25.518,0.285c7.598,0.103,14.221,0.192,19.675,0.267
				c10.909,0.185,17.143,0.292,17.143,0.292s-6.233,0.106-17.143,0.292c-5.454,0.074-12.077,0.163-19.675,0.267
				c-7.597,0.108-16.168,0.227-25.518,0.285c-9.351,0.078-19.48,0.162-30.194,0.25c-10.714,0.089-22.012,0.202-33.7,0.207
				c-23.376,0.063-48.31,0.131-73.245,0.197c-24.935-0.067-49.869-0.136-73.245-0.199c-11.688-0.005-22.986-0.125-33.701-0.21
				c-10.714-0.088-20.843-0.171-30.194-0.248c-9.351-0.059-17.921-0.18-25.519-0.285c-7.597-0.103-14.221-0.191-19.675-0.266
				C51.594,435.715,45.36,435.61,45.36,435.61z"/>
		</g>
	</g>
</g>
</svg>
