<svg width="1280" height="1280" viewBox="0 0 1280 1280" fill="none" xmlns="http://www.w3.org/2000/svg">
<path d="M1161.74 605.571C1157.66 584.151 1143.95 566.019 1130.64 548.749C1056.17 452.134 981.691 355.517 907.218 258.903C889.259 235.604 869.849 211.208 842.276 200.965C810.434 189.135 776.814 198.764 744.074 211.213C728.553 215.596 711.46 223.122 693.092 230.636C661.704 241.213 629.468 248.32 596.833 253.356C536.174 250.383 474.022 201.132 340.48 227.84C247.864 246.364 192.863 299.548 166.059 333.786C157.384 342.354 150.433 352.858 145.802 364.28C135.552 389.558 135.434 417.866 139.041 444.905C149.064 520.01 186.322 590.382 189.115 666.102C190.943 715.666 177.792 764.611 160.919 811.249C149.235 843.54 135.57 878.618 146.603 911.137C157.693 943.823 192.235 964.329 226.591 967.636C260.946 970.944 295.086 959.992 326.769 946.299C358.451 932.605 389.084 915.953 422.367 906.806C490.332 888.123 562.911 902.351 630.32 922.952C697.73 943.552 763.963 970.624 834.056 978.068C873.07 982.211 915.827 978.995 946.002 953.917C993.753 914.232 990.328 839.199 1024.84 787.581C1046.89 754.596 1082.58 733.857 1112.63 707.94C1142.67 682.022 1169.16 644.549 1161.74 605.571Z" fill="#097100"/>
<path opacity="0.7" d="M1161.74 605.571C1157.66 584.151 1143.95 566.019 1130.64 548.749C1056.17 452.134 981.691 355.517 907.218 258.903C889.259 235.604 869.849 211.208 842.276 200.965C810.434 189.135 776.814 198.764 744.074 211.213C728.553 215.596 711.46 223.122 693.092 230.636C661.704 241.213 629.468 248.32 596.833 253.356C536.174 250.383 474.022 201.132 340.48 227.84C247.864 246.364 192.863 299.548 166.059 333.786C157.384 342.354 150.433 352.858 145.802 364.28C135.552 389.558 135.434 417.866 139.041 444.905C149.064 520.01 186.322 590.382 189.115 666.102C190.943 715.666 177.792 764.611 160.919 811.249C149.235 843.54 135.57 878.618 146.603 911.137C157.693 943.823 192.235 964.329 226.591 967.636C260.946 970.944 295.086 959.992 326.769 946.299C358.451 932.605 389.084 915.953 422.367 906.806C490.332 888.123 562.911 902.351 630.32 922.952C697.73 943.552 763.963 970.624 834.056 978.068C873.07 982.211 915.827 978.995 946.002 953.917C993.753 914.232 990.328 839.199 1024.84 787.581C1046.89 754.596 1082.58 733.857 1112.63 707.94C1142.67 682.022 1169.16 644.549 1161.74 605.571Z" fill="white"/>
<path d="M638.72 1118.72C919.369 1118.72 1146.88 1101.53 1146.88 1080.32C1146.88 1059.11 919.369 1041.92 638.72 1041.92C358.071 1041.92 130.56 1059.11 130.56 1080.32C130.56 1101.53 358.071 1118.72 638.72 1118.72Z" fill="#097100"/>
<path opacity="0.9" d="M638.72 1118.72C919.369 1118.72 1146.88 1101.53 1146.88 1080.32C1146.88 1059.11 919.369 1041.92 638.72 1041.92C358.071 1041.92 130.56 1059.11 130.56 1080.32C130.56 1101.53 358.071 1118.72 638.72 1118.72Z" fill="white"/>
<path opacity="0.5" d="M1087.39 301.87H565.519V733.34H1087.39V301.87Z" fill="#097100"/>
<path d="M1102.39 271.421H587.236V710.208H1102.39V271.421Z" fill="white" stroke="#263238" stroke-miterlimit="10" stroke-linecap="round" stroke-linejoin="round"/>
<path d="M1073.61 295.398H616.008V686.231H1073.61V295.398Z" fill="white" stroke="#263238" stroke-miterlimit="10" stroke-linecap="round" stroke-linejoin="round"/>
<path d="M1073.61 402.883C1068.06 403.18 1062.26 403.098 1056.23 402.493C984.392 395.31 957.204 273.743 872.947 319.04C810.378 352.676 838.328 416.763 837.12 471.04C836.086 517.524 809.841 567.204 756.861 556.605C684.634 542.159 714.309 456.502 659.438 429.066C644.59 421.642 629.565 419.021 616.01 418.854V686.231H1073.61V402.883Z" fill="#097100" stroke="#263238" stroke-miterlimit="10" stroke-linecap="round" stroke-linejoin="round"/>
<path d="M711.552 403.297C732.74 403.297 749.916 386.121 749.916 364.933C749.916 343.745 732.74 326.569 711.552 326.569C690.364 326.569 673.188 343.745 673.188 364.933C673.188 386.121 690.364 403.297 711.552 403.297Z" fill="#097100" stroke="#263238" stroke-miterlimit="10" stroke-linecap="round" stroke-linejoin="round"/>
<path opacity="0.6" d="M881.933 688.138H471.007V1037.42H881.933V688.138Z" fill="#097100"/>
<path d="M900.339 664.653H486.531V1017.12H900.339V664.653Z" fill="white" stroke="#263238" stroke-miterlimit="10" stroke-linecap="round" stroke-linejoin="round"/>
<path d="M877.225 683.912H509.642V997.86H877.225V683.912Z" fill="#097100" stroke="#263238" stroke-miterlimit="10" stroke-linecap="round" stroke-linejoin="round"/>
<path d="M609.739 799.643C612.476 782.845 601.076 767.008 584.278 764.271C567.479 761.535 551.642 772.934 548.906 789.733C546.169 806.531 557.568 822.368 574.367 825.105C591.165 827.842 607.002 816.442 609.739 799.643Z" fill="white" stroke="#263238" stroke-miterlimit="10" stroke-linecap="round" stroke-linejoin="round"/>
<path d="M877.228 691.4C875.497 691.922 873.777 692.436 872.005 693.002C788.749 719.572 829.491 825.856 776.351 882.539C723.21 939.223 657.667 907.338 588.585 894.94C556.119 889.114 529.134 892.675 509.645 898.089V997.86H877.228V691.4Z" fill="white" stroke="#263238" stroke-miterlimit="10" stroke-linecap="round" stroke-linejoin="round"/>
<path opacity="0.6" d="M602.501 207.357H183.357V647.048H602.501V207.357Z" fill="#097100"/>
<path d="M716.349 189.898H201.198V628.685H716.349V189.898Z" fill="white" stroke="#263238" stroke-miterlimit="10" stroke-linecap="round" stroke-linejoin="round"/>
<path d="M687.575 213.875H229.97V604.708H687.575V213.875Z" fill="white" stroke="#263238" stroke-miterlimit="10" stroke-linecap="round" stroke-linejoin="round"/>
<path d="M687.575 293.289L490.959 458.445L430.428 385.073C420.383 372.897 402.117 371.812 390.7 382.707L229.97 536.115V604.708H687.575V293.289Z" fill="#097100" stroke="#263238" stroke-miterlimit="10" stroke-linecap="round" stroke-linejoin="round"/>
<path d="M362.829 292.268C367.728 271.655 354.988 250.973 334.374 246.074C313.761 241.175 293.079 253.915 288.18 274.529C283.281 295.142 296.021 315.824 316.635 320.723C337.249 325.622 357.93 312.882 362.829 292.268Z" fill="#097100" stroke="#263238" stroke-miterlimit="10" stroke-linecap="round" stroke-linejoin="round"/>
<path d="M1049.43 997.565C1032.91 997.565 1019.53 1002.43 1019.53 1008.44V1020.21C1019.53 1021.47 1020.15 1022.67 1021.23 1023.8L1025.87 1065.51C1025.87 1070.24 1036.42 1074.08 1049.43 1074.08C1062.44 1074.08 1072.98 1070.24 1072.98 1065.51L1077.65 1023.78C1078.71 1022.66 1079.32 1021.46 1079.32 1020.21V1008.44C1079.32 1002.43 1065.94 997.565 1049.43 997.565Z" fill="#263238" stroke="#263238" stroke-miterlimit="10" stroke-linecap="round" stroke-linejoin="round"/>
<path d="M1058.34 947.663C1058.17 947.651 1062.3 937.421 1062.64 936.804C1066.51 929.679 1078.17 918.188 1087.1 919.867C1093.53 921.078 1096.79 927.741 1095.01 933.763C1093.2 939.912 1086.57 944.205 1080.9 946.34C1074.25 948.846 1058.35 947.663 1058.34 947.663Z" fill="#263238"/>
<path d="M1066.24 904.655C1066.08 904.62 1071.71 895.132 1072.13 894.572C1077.04 888.115 1090.31 878.525 1098.88 881.536C1105.05 883.707 1107.27 890.788 1104.6 896.471C1101.87 902.275 1094.67 905.516 1088.75 906.765C1081.79 908.234 1066.25 904.658 1066.24 904.655Z" fill="#263238"/>
<path d="M1085.16 858.483C1085 858.445 1090.62 848.957 1091.05 848.399C1095.95 841.943 1109.23 832.353 1117.8 835.364C1123.97 837.535 1126.18 844.616 1123.51 850.299C1120.79 856.102 1113.59 859.343 1107.66 860.593C1100.71 862.062 1085.17 858.486 1085.16 858.483Z" fill="#263238"/>
<path d="M1100.89 814.065C1100.73 814.026 1106.35 804.541 1106.78 803.981C1111.68 797.524 1124.96 787.935 1133.52 790.945C1139.7 793.116 1141.91 800.197 1139.24 805.88C1136.52 811.681 1129.32 814.922 1123.39 816.174C1116.44 817.646 1100.9 814.067 1100.89 814.065Z" fill="#263238"/>
<path d="M1103.69 773.658C1103.53 773.665 1106.45 763.028 1106.71 762.378C1109.74 754.857 1120.01 742.1 1129.06 742.743C1135.59 743.206 1139.6 749.453 1138.53 755.635C1137.43 761.951 1131.34 766.979 1125.96 769.751C1119.63 773.005 1103.71 773.658 1103.69 773.658Z" fill="#263238"/>
<path d="M1054.16 945.8C1054.32 945.851 1054.32 934.82 1054.24 934.123C1053.31 926.07 1046.78 911.05 1037.88 909.274C1031.46 907.994 1025.94 912.957 1025.34 919.206C1024.73 925.588 1029.27 932.047 1033.73 936.143C1038.96 940.954 1054.15 945.795 1054.16 945.8Z" fill="#263238"/>
<path d="M1066.58 898.55C1066.75 898.575 1065.07 887.672 1064.89 886.996C1062.75 879.176 1054.02 865.318 1044.95 864.914C1038.41 864.622 1033.71 870.362 1034.06 876.628C1034.42 883.028 1039.89 888.724 1044.92 892.101C1050.82 896.064 1066.57 898.55 1066.58 898.55Z" fill="#263238"/>
<path d="M1084.51 855.035C1084.67 855.06 1083 844.157 1082.81 843.481C1080.68 835.661 1071.95 821.803 1062.87 821.399C1056.34 821.107 1051.64 826.849 1051.99 833.114C1052.35 839.514 1057.82 845.21 1062.85 848.586C1068.75 852.546 1084.5 855.032 1084.51 855.035Z" fill="#263238"/>
<path d="M1099.07 814.187C1099.24 814.213 1097.56 803.31 1097.37 802.634C1095.24 794.813 1086.5 780.956 1077.43 780.552C1070.9 780.26 1066.2 785.999 1066.55 792.266C1066.91 798.666 1072.38 804.362 1077.41 807.739C1083.31 811.699 1099.06 814.185 1099.07 814.187Z" fill="#263238"/>
<path d="M1103.16 774.979C1103.32 774.986 1100.46 764.334 1100.2 763.681C1097.22 756.142 1087.02 743.329 1077.96 743.921C1071.43 744.348 1067.38 750.571 1068.42 756.762C1069.49 763.085 1075.55 768.146 1080.91 770.947C1087.22 774.236 1103.14 774.976 1103.16 774.979Z" fill="#263238"/>
<path d="M1099.23 739.059C1099.37 739.144 1101.74 728.369 1101.81 727.672C1102.64 719.606 1099.49 703.534 1091.17 699.883C1085.18 697.254 1078.73 700.913 1076.8 706.888C1074.83 712.988 1077.87 720.274 1081.35 725.233C1085.42 731.057 1099.22 739.054 1099.23 739.059Z" fill="#263238"/>
<path d="M1047.65 1005.32C1047.65 1005.32 1047.81 1000.66 1048.39 992.617C1048.99 984.566 1049.99 973.084 1051.82 959.378C1052.72 952.525 1053.84 945.116 1055.23 937.316C1055.9 933.384 1056.69 929.48 1057.52 925.276C1057.99 923.261 1058.47 921.226 1058.95 919.171C1059.39 917.123 1060.11 915.013 1060.68 912.911C1063.16 904.52 1066.26 896.133 1069.78 887.759C1073.28 879.396 1077.1 871.037 1080.87 862.682C1084.64 854.328 1088.36 845.97 1091.58 837.578C1094.8 829.194 1097.54 820.782 1099.44 812.459C1101.34 804.145 1102.13 795.85 1102.49 788.05C1102.87 780.209 1102.56 772.767 1102.1 765.924C1101.65 759.073 1100.82 752.824 1100.04 747.3C1099.21 741.778 1098.32 736.988 1097.52 733.059C1095.9 725.202 1094.64 720.786 1094.64 720.786C1094.64 720.786 1095.99 725.171 1097.79 733C1098.67 736.916 1099.67 741.691 1100.62 747.205C1101.52 752.724 1102.49 758.971 1103.09 765.842C1103.71 772.705 1104.18 780.178 1103.97 788.096C1103.77 796.032 1103.16 804.37 1101.42 812.879C1099.67 821.368 1097.08 829.949 1094.01 838.484C1090.95 847.027 1087.39 855.519 1083.79 863.962C1080.2 872.407 1076.58 880.822 1073.28 889.183C1069.99 897.531 1067.1 905.905 1064.89 914.053C1064.38 916.111 1063.74 918.057 1063.34 920.151C1062.91 922.217 1062.47 924.262 1062.04 926.287C1061.36 930.219 1060.63 934.272 1060.06 938.122C1058.85 945.869 1057.9 953.226 1057.16 960.031C1055.64 973.637 1054.9 985.032 1054.49 992.996C1054.08 1000.98 1054.03 1005.49 1054.03 1005.49C1054.01 1007.25 1052.57 1008.66 1050.81 1008.64C1049.04 1008.62 1047.63 1007.18 1047.65 1005.42C1047.65 1005.4 1047.65 1005.38 1047.65 1005.36V1005.32Z" fill="#263238"/>
<path d="M1022.87 961.316C1022.75 961.39 1020.5 952.387 1020.42 951.8C1019.53 945.037 1021.79 931.443 1028.7 928.174C1033.67 925.819 1039.19 928.742 1040.96 933.716C1042.76 938.801 1040.37 944.998 1037.57 949.256C1034.28 954.253 1022.88 961.311 1022.87 961.316Z" fill="#263238"/>
<path d="M1006.98 928.131C1006.85 928.184 1005.99 918.945 1006 918.354C1006.15 911.534 1010.44 898.44 1017.76 896.256C1023.04 894.682 1028.05 898.406 1029.04 903.593C1030.06 908.89 1026.76 914.657 1023.34 918.438C1019.33 922.88 1006.99 928.128 1006.98 928.131Z" fill="#263238"/>
<path d="M997.025 887.347C996.897 887.401 996.034 878.162 996.047 877.571C996.193 870.751 1000.49 857.656 1007.81 855.473C1013.08 853.898 1018.09 857.623 1019.09 862.81C1020.1 868.106 1016.8 873.874 1013.39 877.655C1009.38 882.097 997.033 887.345 997.025 887.347Z" fill="#263238"/>
<path d="M985.766 849.334C985.638 849.387 984.778 840.148 984.788 839.557C984.934 832.737 989.227 819.643 996.549 817.459C1001.82 815.885 1006.83 819.61 1007.83 824.796C1008.84 830.093 1005.54 835.86 1002.13 839.642C998.121 844.083 985.774 849.331 985.766 849.334Z" fill="#263238"/>
<path d="M967.695 820.444C967.585 820.531 964.316 811.845 964.173 811.274C962.514 804.657 963.197 790.894 969.679 786.854C974.351 783.944 980.168 786.212 982.495 790.953C984.87 795.794 983.211 802.227 980.918 806.776C978.225 812.116 967.703 820.436 967.695 820.444Z" fill="#263238"/>
<path d="M1019.1 962.109C1019.24 962.066 1013.78 954.56 1013.38 954.125C1008.77 949.102 996.894 942.108 989.954 945.303C984.955 947.604 983.651 953.713 986.334 958.262C989.071 962.908 995.358 965.059 1000.42 965.642C1006.36 966.328 1019.09 962.114 1019.1 962.109Z" fill="#263238"/>
<path d="M1004.19 923.807C1004.32 923.743 997.785 917.151 997.325 916.782C992.002 912.515 979.208 907.4 972.831 911.611C968.238 914.644 967.874 920.878 971.215 924.969C974.625 929.147 981.166 930.319 986.258 930.13C992.235 929.907 1004.19 923.812 1004.19 923.807Z" fill="#263238"/>
<path d="M994.877 885.32C995.003 885.256 988.47 878.664 988.009 878.295C982.687 874.027 969.892 868.915 963.515 873.124C958.922 876.157 958.559 882.391 961.899 886.482C965.309 890.66 971.85 891.835 976.942 891.643C982.92 891.42 994.87 885.325 994.877 885.32Z" fill="#263238"/>
<path d="M984.591 850.317C984.716 850.253 978.183 843.661 977.723 843.292C972.4 839.025 959.606 833.912 953.229 838.121C948.636 841.154 948.272 847.388 951.613 851.479C955.023 855.657 961.564 856.832 966.656 856.643C972.633 856.417 984.583 850.319 984.591 850.317Z" fill="#263238"/>
<path d="M967.982 821.606C968.1 821.53 960.883 815.695 960.384 815.378C954.624 811.722 941.345 808.043 935.47 812.928C931.238 816.445 931.563 822.682 935.332 826.381C939.179 830.159 945.81 830.607 950.848 829.86C956.764 828.984 967.972 821.614 967.982 821.606Z" fill="#263238"/>
<path d="M947.548 799.099C947.686 799.083 943.972 790.579 943.675 790.07C940.247 784.171 930.158 774.786 922.693 776.415C917.314 777.587 914.729 783.27 916.37 788.291C918.044 793.418 923.719 796.869 928.537 798.528C934.195 800.479 947.538 799.101 947.548 799.099Z" fill="#263238"/>
<path d="M1044.1 1005.84C1044.1 1005.84 1041.9 1002.59 1038.33 996.831C1034.75 991.058 1029.75 982.746 1024.23 972.511C1021.45 967.401 1018.55 961.805 1015.64 955.807C1014.15 952.799 1012.75 949.752 1011.24 946.481C1010.57 944.875 1009.88 943.252 1009.2 941.617C1008.48 940.006 1007.93 938.214 1007.28 936.502C1004.82 929.562 1002.78 922.319 1001.03 914.883C999.288 907.453 997.752 899.876 996.186 892.326C994.624 884.774 993.021 877.245 991.058 869.944C989.107 862.643 986.814 855.562 983.99 848.957C981.169 842.358 977.608 836.321 973.998 830.83C970.378 825.306 966.487 820.393 962.788 815.964C959.096 811.52 955.438 807.68 952.174 804.306C948.882 800.955 945.907 798.136 943.419 795.858C938.432 791.309 935.388 788.928 935.388 788.928C935.388 788.928 938.481 791.242 943.573 795.684C946.112 797.911 949.151 800.668 952.525 803.953C955.871 807.263 959.619 811.034 963.425 815.416C967.237 819.784 971.259 824.635 975.03 830.129C978.819 835.63 982.523 841.61 985.544 848.264C988.554 854.904 991.032 862.029 993.162 869.355C995.302 876.685 997.079 884.224 998.807 891.748C1000.54 899.274 1002.23 906.79 1004.12 914.112C1006.01 921.426 1008.19 928.55 1010.71 935.194C1011.38 936.847 1011.91 938.486 1012.67 940.106C1013.39 941.729 1014.11 943.337 1014.82 944.927C1016.3 947.94 1017.81 951.06 1019.32 953.963C1022.33 959.834 1025.32 965.312 1028.18 970.312C1033.88 980.324 1039 988.449 1042.66 994.074C1046.33 999.708 1048.53 1002.8 1048.53 1002.8C1049.39 1004.01 1049.1 1005.69 1047.89 1006.54C1046.68 1007.4 1045.01 1007.12 1044.15 1005.91C1044.14 1005.9 1044.13 1005.88 1044.13 1005.87L1044.1 1005.84Z" fill="#263238"/>
<path d="M324.022 484.68C324.022 484.68 329.318 502.157 330.905 507.453C332.495 512.75 343.086 507.453 353.679 503.747C364.273 500.04 388.633 487.859 393.93 492.626C399.227 497.393 440.535 602.785 438.418 610.729C436.301 618.673 433.651 623.439 419.881 620.262C406.111 617.085 400.814 602.785 400.814 602.785L393.93 627.146C393.93 627.146 407.7 649.92 414.584 674.811C421.468 699.702 435.768 780.203 436.828 802.975C437.888 825.748 444.772 876.59 444.772 876.59C444.772 876.59 439.475 881.357 412.467 886.653C385.457 891.95 371.686 891.95 371.686 891.95L372.216 900.424C372.216 900.424 347.855 906.78 316.608 901.484C285.361 896.187 265.766 887.183 265.766 887.183C265.766 887.183 286.95 800.328 286.42 781.261C285.89 762.194 281.124 746.307 282.184 728.3C283.243 710.292 294.894 682.755 294.894 682.755C294.894 682.755 303.368 666.867 291.187 636.15C279.007 605.432 258.88 559.357 253.586 545.587C248.289 531.817 291.717 518.047 297.014 515.93C302.31 513.812 275.3 466.145 281.654 460.851C288.01 455.549 324.022 484.68 324.022 484.68Z" fill="#097100" stroke="#263238" stroke-miterlimit="10" stroke-linecap="round" stroke-linejoin="round"/>
<path d="M250.936 543.995C250.936 543.995 245.64 549.821 247.759 561.472C249.879 573.123 276.887 652.035 283.773 664.745C290.657 677.455 297.014 675.338 302.84 672.159C308.667 668.982 360.038 635.615 374.866 626.611C389.696 617.608 416.174 602.25 416.174 602.25C416.174 602.25 440.535 613.371 440.008 608.077C439.478 602.78 442.125 592.719 434.711 584.773C427.297 576.829 414.057 582.656 408.23 586.89C402.404 591.127 360.566 608.604 342.029 614.961C323.492 621.315 313.958 623.964 313.958 623.964L289.597 573.652" fill="white"/>
<mask id="mask0_9_8" style="mask-type:luminance" maskUnits="userSpaceOnUse" x="247" y="543" width="194" height="132">
<path d="M250.936 543.995C250.936 543.995 245.64 549.821 247.759 561.472C249.879 573.123 276.887 652.035 283.773 664.745C290.657 677.455 297.014 675.338 302.84 672.159C308.667 668.982 360.038 635.615 374.866 626.611C389.696 617.608 416.174 602.25 416.174 602.25C416.174 602.25 440.535 613.371 440.008 608.077C439.478 602.78 442.125 592.719 434.711 584.773C427.297 576.829 414.057 582.656 408.23 586.89C402.404 591.127 360.566 608.604 342.029 614.961C323.492 621.315 313.958 623.964 313.958 623.964L289.597 573.652" fill="white"/>
</mask>
<g mask="url(#mask0_9_8)">
<path opacity="0.5" d="M300.029 657.48C291.443 655.332 282.854 638.157 282.854 638.157C282.854 638.157 290.368 630.643 298.957 620.982C302.856 616.594 304.975 611.773 306.137 607.808L289.597 573.652L289.59 573.647L260.311 575.9C260.311 575.9 257.848 578.66 254.042 583.02C263.004 610.936 278.746 655.467 283.771 664.745C290.655 677.455 297.011 675.338 302.838 672.159C308.664 668.982 360.036 635.615 374.863 626.611C389.693 617.608 416.171 602.25 416.171 602.25C416.171 602.25 425.472 606.495 432.456 608.489C429.553 599.8 426.69 592 426.69 592H398.397C396.444 592.909 394.291 593.887 391.977 594.913L390.195 609.175" fill="#097100"/>
</g>
<path d="M250.936 543.995C250.936 543.995 245.64 549.821 247.759 561.472C249.879 573.123 276.887 652.035 283.773 664.745C290.657 677.455 297.014 675.338 302.84 672.159C308.667 668.982 360.038 635.615 374.866 626.611C389.696 617.608 416.174 602.25 416.174 602.25C416.174 602.25 440.535 613.371 440.008 608.077C439.478 602.78 442.125 592.719 434.711 584.773C427.297 576.829 414.057 582.656 408.23 586.89C402.404 591.127 360.566 608.604 342.029 614.961C323.492 621.315 313.958 623.964 313.958 623.964L289.597 573.652" stroke="#263238" stroke-miterlimit="10" stroke-linecap="round" stroke-linejoin="round"/>
<path d="M434.711 584.776C427.297 576.832 414.057 582.659 408.23 586.895C407.77 587.231 407.058 587.658 406.172 588.147C408.225 590.597 410.611 594.04 411.937 598.016C412.593 599.98 413.115 601.943 413.535 603.786C415.201 602.816 416.174 602.253 416.174 602.253C416.174 602.253 440.535 613.373 440.008 608.079C439.478 602.78 442.125 592.719 434.711 584.776Z" fill="white" stroke="#263238" stroke-miterlimit="10" stroke-linecap="round" stroke-linejoin="round"/>
<path d="M351.196 504.64C341.486 508.216 332.37 512.333 330.905 507.451C329.316 502.154 324.022 484.677 324.022 484.677C324.022 484.677 288.007 455.549 281.654 460.844C275.297 466.14 302.308 513.805 297.011 515.922C295.127 516.675 288.415 518.909 280.791 522.086C284.203 527.68 292.188 537.708 309.721 548.229C336.202 564.116 342.029 568.353 342.029 568.353L351.196 504.64Z" fill="white"/>
<mask id="mask1_9_8" style="mask-type:luminance" maskUnits="userSpaceOnUse" x="280" y="460" width="72" height="109">
<path d="M351.196 504.64C341.486 508.216 332.37 512.333 330.905 507.451C329.316 502.154 324.022 484.677 324.022 484.677C324.022 484.677 288.007 455.549 281.654 460.844C275.297 466.14 302.308 513.805 297.011 515.922C295.127 516.675 288.415 518.909 280.791 522.086C284.203 527.68 292.188 537.708 309.721 548.229C336.202 564.116 342.029 568.353 342.029 568.353L351.196 504.64Z" fill="white"/>
</mask>
<g mask="url(#mask1_9_8)">
<path opacity="0.5" d="M324.022 484.68C324.022 484.68 291.218 458.153 282.713 460.357C282.24 460.664 281.774 460.969 281.311 461.274C278.244 465.659 287.416 485.548 293.261 500.099C298.821 501.074 303.603 501.399 306.47 500.762C312.143 499.502 320.389 495.286 326.244 492.017C325.002 487.913 324.022 484.68 324.022 484.68Z" fill="#097100"/>
</g>
<path d="M351.196 504.64C341.486 508.216 332.37 512.333 330.905 507.451C329.316 502.154 324.022 484.677 324.022 484.677C324.022 484.677 288.007 455.549 281.654 460.844C275.297 466.14 302.308 513.805 297.011 515.922C295.127 516.675 288.415 518.909 280.791 522.086C284.203 527.68 292.188 537.708 309.721 548.229C336.202 564.116 342.029 568.353 342.029 568.353L351.196 504.64Z" stroke="#263238" stroke-miterlimit="10" stroke-linecap="round" stroke-linejoin="round"/>
<path d="M328.64 414.062C328.64 414.062 340.224 393.19 329.078 376.123C312.732 351.096 277.128 352.146 249.152 372.127C221.722 391.721 219.912 429.875 219.264 452.567C218.616 475.259 229.619 495.885 217.323 513.075C205.028 530.266 186.906 547.456 192.73 579.773C198.554 612.091 214.088 623.091 258.742 623.091C303.396 623.091 323.599 579.126 313.889 549.56C304.182 519.992 293.908 494.446 293.908 484.82C293.908 475.195 265.861 420.25 290.452 412.685C315.049 405.123 328.64 414.062 328.64 414.062Z" fill="#263238" stroke="#263238" stroke-miterlimit="10" stroke-linecap="round" stroke-linejoin="round"/>
<path d="M312.325 393.526C312.325 393.526 296.238 382.802 279.388 396.59C262.536 410.378 255.641 431.826 255.641 454.807C255.641 477.788 278.623 524.513 285.517 553.623C292.411 582.73 286.282 620.265 243.387 621.798" stroke="white" stroke-width="0.5" stroke-miterlimit="10" stroke-linecap="round" stroke-linejoin="round"/>
<path d="M318.454 394.294C318.454 394.294 312.325 369.782 277.855 374.377C243.384 378.972 229.596 432.594 234.194 465.531C238.789 498.47 277.855 557.45 280.919 577.367C283.983 597.284 277.102 606.807 277.102 606.807" stroke="white" stroke-width="0.5" stroke-miterlimit="10" stroke-linecap="round" stroke-linejoin="round"/>
<path d="M241.853 493.107C241.853 493.107 248.747 509.96 244.152 547.494C239.557 585.029 213.512 594.988 208.151 582.73C202.788 570.473 210.45 560.517 218.109 559.749" stroke="white" stroke-width="0.5" stroke-miterlimit="10" stroke-linecap="round" stroke-linejoin="round"/>
<path d="M340.252 493.069C340.252 493.069 331.215 492.657 329.981 495.534C328.75 498.409 342.305 500.052 342.305 500.052L340.252 493.069Z" fill="white" stroke="#263238" stroke-miterlimit="10" stroke-linecap="round" stroke-linejoin="round"/>
<path d="M337.262 482.03C337.262 482.03 321.375 496.33 324.022 500.037C326.669 503.744 337.262 489.974 337.262 489.974L343.089 493.151C343.089 493.151 337.262 497.388 335.675 501.094C334.085 504.801 335.675 507.451 338.852 511.158C342.029 514.865 342.559 519.631 346.795 519.631C351.032 519.631 352.092 513.805 352.092 513.805C352.092 513.805 356.329 521.219 358.976 523.338C361.623 525.455 369.039 525.985 369.039 525.985C369.039 525.985 396.05 600.131 402.404 611.251C408.758 622.372 410.347 630.845 428.884 628.728C447.421 626.611 441.065 611.251 435.238 597.481C429.412 583.711 392.87 536.046 383.337 524.925C373.803 513.805 369.567 508.508 358.446 494.738C347.325 480.973 340.441 478.853 337.262 482.03Z" fill="white"/>
<mask id="mask2_9_8" style="mask-type:luminance" maskUnits="userSpaceOnUse" x="323" y="480" width="119" height="150">
<path d="M337.262 482.03C337.262 482.03 321.375 496.33 324.022 500.037C326.669 503.744 337.262 489.974 337.262 489.974L343.089 493.151C343.089 493.151 337.262 497.388 335.675 501.094C334.085 504.801 335.675 507.451 338.852 511.158C342.029 514.865 342.559 519.631 346.795 519.631C351.032 519.631 352.092 513.805 352.092 513.805C352.092 513.805 356.329 521.219 358.976 523.338C361.623 525.455 369.039 525.985 369.039 525.985C369.039 525.985 396.05 600.131 402.404 611.251C408.758 622.372 410.347 630.845 428.884 628.728C447.421 626.611 441.065 611.251 435.238 597.481C429.412 583.711 392.87 536.046 383.337 524.925C373.803 513.805 369.567 508.508 358.446 494.738C347.325 480.973 340.441 478.853 337.262 482.03Z" fill="white"/>
</mask>
<g mask="url(#mask2_9_8)">
<path opacity="0.5" d="M417.28 612.692C407.04 599.892 376.32 532.48 369.039 525.988C369.039 525.988 396.05 600.133 402.404 611.254C408.758 622.377 410.347 630.851 428.884 628.731C432.863 628.275 435.686 627.208 437.624 625.682C431.736 623.928 423.329 620.252 417.28 612.692Z" fill="#097100"/>
</g>
<path d="M337.262 482.03C337.262 482.03 321.375 496.33 324.022 500.037C326.669 503.744 337.262 489.974 337.262 489.974L343.089 493.151C343.089 493.151 337.262 497.388 335.675 501.094C334.085 504.801 335.675 507.451 338.852 511.158C342.029 514.865 342.559 519.631 346.795 519.631C351.032 519.631 352.092 513.805 352.092 513.805C352.092 513.805 356.329 521.219 358.976 523.338C361.623 525.455 369.039 525.985 369.039 525.985C369.039 525.985 396.05 600.131 402.404 611.251C408.758 622.372 410.347 630.845 428.884 628.728C447.421 626.611 441.065 611.251 435.238 597.481C429.412 583.711 392.87 536.046 383.337 524.925C373.803 513.805 369.567 508.508 358.446 494.738C347.325 480.973 340.441 478.853 337.262 482.03Z" stroke="#263238" stroke-miterlimit="10" stroke-linecap="round" stroke-linejoin="round"/>
<path d="M352.427 509.44C346.455 509.44 346.795 519.634 346.795 519.634C351.032 519.634 352.092 513.807 352.092 513.807C352.092 513.807 356.329 521.221 358.976 523.341C361.623 525.458 369.039 525.988 369.039 525.988C361.759 519.496 358.4 509.44 352.427 509.44Z" fill="#097100"/>
<path d="M338.199 509.911C338.199 509.911 336.968 504.159 338.199 502.518C339.43 500.874 344.77 495.944 344.77 495.944" stroke="#263238" stroke-width="0.5" stroke-miterlimit="10" stroke-linecap="round" stroke-linejoin="round"/>
<path d="M341.486 514.842C341.486 514.842 339.843 506.627 341.486 505.393C343.13 504.161 350.113 500.052 350.113 500.052" stroke="#263238" stroke-width="0.5" stroke-miterlimit="10" stroke-linecap="round" stroke-linejoin="round"/>
<path d="M367.442 883.645C367.442 883.645 353.055 918.013 353.055 936.397C353.055 954.78 353.853 1024.31 349.857 1037.9C345.861 1051.49 345.861 1057.88 351.455 1060.28C357.048 1062.68 369.838 1061.88 373.035 1064.28C376.233 1066.68 392.217 1072.27 396.214 1069.07C400.21 1065.87 372.237 1049.09 369.039 1042.7C365.842 1036.3 381.028 967.567 389.02 951.583C397.012 935.598 408.202 886.843 408.202 881.249C408.205 875.653 367.442 883.645 367.442 883.645Z" fill="white"/>
<mask id="mask3_9_8" style="mask-type:luminance" maskUnits="userSpaceOnUse" x="347" y="879" width="62" height="192">
<path d="M367.442 883.645C367.442 883.645 353.055 918.013 353.055 936.397C353.055 954.78 353.853 1024.31 349.857 1037.9C345.861 1051.49 345.861 1057.88 351.455 1060.28C357.048 1062.68 369.838 1061.88 373.035 1064.28C376.233 1066.68 392.217 1072.27 396.214 1069.07C400.21 1065.87 372.237 1049.09 369.039 1042.7C365.842 1036.3 381.028 967.567 389.02 951.583C397.012 935.598 408.202 886.843 408.202 881.249C408.205 875.653 367.442 883.645 367.442 883.645Z" fill="white"/>
</mask>
<g mask="url(#mask3_9_8)">
<path opacity="0.5" d="M367.442 883.646C367.442 883.646 353.055 918.013 353.055 936.397C353.055 954.78 353.853 1024.31 349.857 1037.9C345.861 1051.49 345.861 1057.88 351.455 1060.28C351.357 1049.82 355.845 1017.08 364.434 971.991C373.02 926.907 369.8 908.659 369.8 908.659C369.8 908.659 385.902 905.439 393.416 903.291C396.398 902.438 400.727 900.741 404.869 899.006C406.899 890.079 408.2 883.154 408.2 881.247C408.205 875.653 367.442 883.646 367.442 883.646Z" fill="#097100"/>
</g>
<path d="M367.442 883.645C367.442 883.645 353.055 918.013 353.055 936.397C353.055 954.78 353.853 1024.31 349.857 1037.9C345.861 1051.49 345.861 1057.88 351.455 1060.28C357.048 1062.68 369.838 1061.88 373.035 1064.28C376.233 1066.68 392.217 1072.27 396.214 1069.07C400.21 1065.87 372.237 1049.09 369.039 1042.7C365.842 1036.3 381.028 967.567 389.02 951.583C397.012 935.598 408.202 886.843 408.202 881.249C408.205 875.653 367.442 883.645 367.442 883.645Z" stroke="#263238" stroke-miterlimit="10" stroke-linecap="round" stroke-linejoin="round"/>
<path d="M369.039 1042.7L362.644 1050.69L348.675 1042.18C345.938 1052.85 346.486 1058.15 351.455 1060.28C357.048 1062.68 369.838 1061.88 373.035 1064.27C376.233 1066.67 392.218 1072.27 396.214 1069.07C400.21 1065.87 372.237 1049.09 369.039 1042.7Z" fill="#097100" stroke="#263238" stroke-miterlimit="10" stroke-linecap="round" stroke-linejoin="round"/>
<path d="M285.919 886.843C285.919 886.843 273.132 902.029 268.334 932.401C263.539 962.772 262.74 1053.09 261.939 1065.87C261.138 1078.66 260.339 1081.06 268.334 1085.06C276.326 1089.05 294.71 1097.84 299.505 1097.84C304.3 1097.84 305.9 1094.65 299.505 1083.46C293.11 1072.27 275.528 1067.47 275.528 1057.88C275.528 1048.29 315.489 937.193 320.284 919.608C325.079 902.026 325.079 890.035 325.079 890.035L285.919 886.843Z" fill="white"/>
<mask id="mask4_9_8" style="mask-type:luminance" maskUnits="userSpaceOnUse" x="261" y="886" width="65" height="212">
<path d="M285.919 886.843C285.919 886.843 273.132 902.029 268.334 932.401C263.539 962.772 262.74 1053.09 261.939 1065.87C261.138 1078.66 260.339 1081.06 268.334 1085.06C276.326 1089.05 294.71 1097.84 299.505 1097.84C304.3 1097.84 305.9 1094.65 299.505 1083.46C293.11 1072.27 275.528 1067.47 275.528 1057.88C275.528 1048.29 315.489 937.193 320.284 919.608C325.079 902.026 325.079 890.035 325.079 890.035L285.919 886.843Z" fill="white"/>
</mask>
<g mask="url(#mask4_9_8)">
<path opacity="0.5" d="M268.334 932.401C263.539 962.772 262.741 1053.09 261.939 1065.87C261.156 1078.43 260.39 1080.97 267.922 1084.84C268.134 1071.25 268.823 1044.29 271.045 1011.71C274.266 964.477 285 905.439 285 905.439C285 905.439 293.586 908.659 309.688 910.804C315.11 911.529 319.171 911.757 322.202 911.752C325.066 898.563 325.079 890.038 325.079 890.038L285.916 886.84C285.916 886.84 273.132 902.029 268.334 932.401Z" fill="#097100"/>
</g>
<path d="M285.919 886.843C285.919 886.843 273.132 902.029 268.334 932.401C263.539 962.772 262.74 1053.09 261.939 1065.87C261.138 1078.66 260.339 1081.06 268.334 1085.06C276.326 1089.05 294.71 1097.84 299.505 1097.84C304.3 1097.84 305.9 1094.65 299.505 1083.46C293.11 1072.27 275.528 1067.47 275.528 1057.88C275.528 1048.29 315.489 937.193 320.284 919.608C325.079 902.026 325.079 890.035 325.079 890.035L285.919 886.843Z" stroke="#263238" stroke-miterlimit="10" stroke-linecap="round" stroke-linejoin="round"/>
<path d="M299.505 1097.85C304.3 1097.85 305.9 1094.65 299.505 1083.46C294.968 1075.52 284.826 1070.8 279.301 1065.3L272.33 1072.27L261.901 1066.48C261.117 1078.72 260.472 1081.13 268.334 1085.06C276.326 1089.05 294.71 1097.85 299.505 1097.85Z" fill="#097100" stroke="#263238" stroke-miterlimit="10" stroke-linecap="round" stroke-linejoin="round"/>
<path d="M330.908 408.415C330.908 408.415 330.378 401.001 324.024 396.234C317.67 391.468 294.367 390.408 284.303 403.118C274.24 415.828 278.477 447.076 280.066 450.253C280.066 450.253 266.826 442.309 265.766 454.49C264.706 466.67 270.533 472.497 276.887 472.497C283.243 472.497 285.361 467.73 285.361 467.73C285.361 467.73 299.131 484.677 318.195 486.797C337.262 488.914 347.853 467.73 350.5 455.02C353.152 442.309 333.555 422.185 330.908 408.415Z" fill="white"/>
<mask id="mask5_9_8" style="mask-type:luminance" maskUnits="userSpaceOnUse" x="265" y="392" width="86" height="95">
<path d="M330.908 408.415C330.908 408.415 330.378 401.001 324.024 396.234C317.67 391.468 294.367 390.408 284.303 403.118C274.24 415.828 278.477 447.076 280.066 450.253C280.066 450.253 266.826 442.309 265.766 454.49C264.706 466.67 270.533 472.497 276.887 472.497C283.243 472.497 285.361 467.73 285.361 467.73C285.361 467.73 299.131 484.677 318.195 486.797C337.262 488.914 347.853 467.73 350.5 455.02C353.152 442.309 333.555 422.185 330.908 408.415Z" fill="white"/>
</mask>
<g mask="url(#mask5_9_8)">
<path opacity="0.5" d="M306.47 472.852C293.588 464.266 285.002 446.016 281.782 433.137C279.406 423.636 282.283 410.071 283.958 403.594C274.347 416.584 278.495 447.117 280.064 450.255C280.064 450.255 266.824 442.312 265.764 454.492C264.704 466.673 270.531 472.499 276.884 472.499C283.241 472.499 285.358 467.732 285.358 467.732C285.358 467.732 299.128 484.68 318.193 486.799C324.634 487.514 330.084 485.537 334.612 482.158C328.256 482.166 317.622 480.284 306.47 472.852Z" fill="#097100"/>
</g>
<path d="M330.908 408.415C330.908 408.415 330.378 401.001 324.024 396.234C317.67 391.468 294.367 390.408 284.303 403.118C274.24 415.828 278.477 447.076 280.066 450.253C280.066 450.253 266.826 442.309 265.766 454.49C264.706 466.67 270.533 472.497 276.887 472.497C283.243 472.497 285.361 467.73 285.361 467.73C285.361 467.73 299.131 484.677 318.195 486.797C337.262 488.914 347.853 467.73 350.5 455.02C353.152 442.309 333.555 422.185 330.908 408.415Z" stroke="#263238" stroke-miterlimit="10" stroke-linecap="round" stroke-linejoin="round"/>
<path d="M323.21 416.448C323.21 416.448 321.823 423.386 323.904 428.59C325.985 433.795 333.965 439.345 332.923 441.426C331.881 443.507 328.412 444.201 328.412 444.201" stroke="#263238" stroke-miterlimit="10" stroke-linecap="round" stroke-linejoin="round"/>
<path d="M328.066 459.812C328.066 459.812 323.21 461.893 315.924 457.382" stroke="#263238" stroke-miterlimit="10" stroke-linecap="round" stroke-linejoin="round"/>
<path d="M308.787 428.626C309.146 430.799 308.593 432.701 307.553 432.873C306.514 433.044 305.38 431.421 305.024 429.245C304.666 427.072 305.219 425.17 306.258 424.998C307.297 424.829 308.429 426.453 308.787 428.626Z" fill="#263238"/>
<path d="M330.721 420.047C331.415 422.139 331.167 424.102 330.166 424.435C329.165 424.768 327.793 423.339 327.099 421.251C326.405 419.159 326.653 417.196 327.654 416.863C328.653 416.527 330.027 417.956 330.721 420.047Z" fill="#263238"/>
<path d="M297.538 424.428C297.538 424.428 296.496 416.796 302.395 414.367C308.293 411.937 311.414 413.673 311.414 413.673" stroke="#263238" stroke-miterlimit="10" stroke-linecap="round" stroke-linejoin="round"/>
<path d="M322.516 413.325C322.516 413.325 323.144 407.132 327.027 407.775" stroke="#263238" stroke-miterlimit="10" stroke-linecap="round" stroke-linejoin="round"/>
<path d="M371.686 891.948C371.686 891.948 385.457 891.948 412.467 886.651C439.478 881.354 444.774 876.588 444.774 876.588C444.774 876.588 437.89 825.746 436.831 802.972C435.784 780.442 421.78 701.44 414.815 675.656C406.515 681.503 393.682 687.928 373.837 693.425C337.144 703.585 308.05 692.221 294.111 684.667C291.479 691.21 283.077 713.134 282.184 728.297C281.124 746.304 285.891 762.191 286.42 781.258C286.95 800.325 265.766 887.181 265.766 887.181C265.766 887.181 285.363 896.184 316.608 901.481C347.855 906.778 372.216 900.421 372.216 900.421L371.686 891.948Z" fill="#263238" stroke="#263238" stroke-miterlimit="10" stroke-linecap="round" stroke-linejoin="round"/>
<path d="M371.686 891.947L369.039 737.382L383.426 712.607" stroke="white" stroke-miterlimit="10" stroke-linecap="round" stroke-linejoin="round"/>
<path d="M324.907 700.956C324.907 700.956 324.001 709.12 317.652 716.375C311.304 723.63 305.861 725.445 305.861 725.445" stroke="white" stroke-width="0.5" stroke-miterlimit="10" stroke-linecap="round" stroke-linejoin="round"/>
<path d="M299.487 882.212C298.396 889.603 297.7 894.139 297.7 894.139" stroke="white" stroke-width="0.5" stroke-miterlimit="10" stroke-linecap="round" stroke-linejoin="round"/>
<path d="M308.582 697.329C308.582 697.329 301.327 720.909 304.048 746.304C306.77 771.699 308.582 816.141 304.955 843.349C303.542 853.947 302.128 863.995 300.93 872.315" stroke="white" stroke-width="0.5" stroke-miterlimit="10" stroke-linecap="round" stroke-linejoin="round"/>
<path d="M272.302 873.28C272.302 873.28 300.418 895.954 365.719 888.699" stroke="white" stroke-width="0.5" stroke-miterlimit="10" stroke-linecap="round" stroke-linejoin="round"/>
<path d="M379.325 880.535C379.325 880.535 407.442 882.347 440.092 863.304" stroke="white" stroke-width="0.5" stroke-miterlimit="10" stroke-linecap="round" stroke-linejoin="round"/>
</svg>
